<svg xmlns="http://www.w3.org/2000/svg" viewBox="0 0 290.23 294.28"><defs><style>.cls-1{isolation:isolate;}.cls-2{mix-blend-mode:multiply;}.cls-3{fill:#fff;}.cls-4{fill:#1d1d1b;}</style></defs><title>Risorsa 16</title><g class="cls-1"><g id="Livello_2" data-name="Livello 2"><g id="HomePage_Fissa" data-name="HomePage Fissa"><g id="Sott.1"><g class="cls-2"><path d="M28.49,47.79c-.94,0-1.89,0-2.84,0a2.2,2.2,0,1,1-.11-4.39c.66,0,1.32,0,2,0,0-.43.06-.75.07-1.07s0-.64,0-1.14c-.79,0-1.49,0-2.17,0a2.17,2.17,0,0,1-2.18-2.24,2,2,0,0,1,2.28-2.1c2.23.29,3.15-.62,4.14-2.63a16.76,16.76,0,0,1,24.52-6.5c1.21.84,1.58,1.89,1.05,3a2.2,2.2,0,0,1-2.74,1.09A8.9,8.9,0,0,1,51.25,31a12.53,12.53,0,0,0-17.67,5.16c-.07.14-.12.29-.25.63h6.89c.91,0,1.83,0,2.74,0a2.2,2.2,0,1,1-.09,4.39c-3.12,0-6.23,0-9.35,0H32.2v2.16H36c2.24,0,4.49,0,6.73,0a2.29,2.29,0,0,1,2.52,2.2c0,1.32-1,2.2-2.61,2.21-3.07,0-6.13,0-9.4,0,.27.53.44.94.66,1.31a12.57,12.57,0,0,0,17.66,4.29,3.62,3.62,0,0,1,2.52-.46,2.28,2.28,0,0,1,1.27,1.74,2.81,2.81,0,0,1-1,2.06,15.64,15.64,0,0,1-11.8,2.89c-6.69-1-11.22-4.84-13.75-11.08C28.73,48.31,28.62,48.09,28.49,47.79Z" transform="translate(0 0)"/></g><path class="cls-3" d="M27.49,46.79c-.94,0-1.89,0-2.84,0a2.2,2.2,0,1,1-.11-4.39c.66,0,1.32,0,2,0,0-.43.06-.75.07-1.07s0-.64,0-1.14c-.79,0-1.49,0-2.17,0a2.17,2.17,0,0,1-2.18-2.24,2,2,0,0,1,2.28-2.1c2.23.29,3.15-.62,4.14-2.63a16.76,16.76,0,0,1,24.52-6.5c1.21.84,1.58,1.89,1.05,3a2.2,2.2,0,0,1-2.74,1.09A8.9,8.9,0,0,1,50.25,30a12.53,12.53,0,0,0-17.67,5.16c-.07.14-.12.29-.25.63h6.89c.91,0,1.83,0,2.74,0a2.2,2.2,0,1,1-.09,4.39c-3.12,0-6.23,0-9.35,0H31.2v2.16H35c2.24,0,4.49,0,6.73,0a2.29,2.29,0,0,1,2.52,2.2c0,1.32-1,2.2-2.61,2.21-3.07,0-6.13,0-9.4,0,.27.53.44.94.66,1.31a12.57,12.57,0,0,0,17.66,4.29,3.62,3.62,0,0,1,2.52-.46,2.28,2.28,0,0,1,1.27,1.74,2.81,2.81,0,0,1-1,2.06,15.64,15.64,0,0,1-11.8,2.89c-6.69-1-11.22-4.84-13.75-11.08C27.73,47.31,27.62,47.09,27.49,46.79Z" transform="translate(0 0)"/><g class="cls-2"><path d="M235.49,47.79c-.94,0-1.89,0-2.84,0a2.2,2.2,0,1,1-.11-4.39c.66,0,1.32,0,2,0,0-.43.06-.75.07-1.07s0-.64,0-1.14c-.79,0-1.49,0-2.17,0a2.17,2.17,0,0,1-2.18-2.24,2,2,0,0,1,2.28-2.1c2.23.29,3.15-.62,4.14-2.63a16.76,16.76,0,0,1,24.52-6.5c1.21.84,1.58,1.89,1.05,3a2.2,2.2,0,0,1-2.74,1.09,8.9,8.9,0,0,1-1.29-.75,12.53,12.53,0,0,0-17.67,5.16c-.07.14-.12.29-.25.63h6.89c.91,0,1.83,0,2.74,0a2.2,2.2,0,1,1-.09,4.39c-3.12,0-6.23,0-9.35,0H239.2v2.16H243c2.24,0,4.49,0,6.73,0a2.29,2.29,0,0,1,2.52,2.2c0,1.32-1,2.2-2.61,2.21-3.07,0-6.13,0-9.4,0,.27.53.44.94.66,1.31a12.57,12.57,0,0,0,17.66,4.29,3.62,3.62,0,0,1,2.52-.46,2.28,2.28,0,0,1,1.27,1.74,2.81,2.81,0,0,1-1,2.06,15.64,15.64,0,0,1-11.8,2.89c-6.69-1-11.22-4.84-13.75-11.08C235.73,48.31,235.62,48.09,235.49,47.79Z" transform="translate(0 0)"/></g><path class="cls-3" d="M234.49,46.79c-.94,0-1.89,0-2.84,0a2.2,2.2,0,1,1-.11-4.39c.66,0,1.32,0,2,0,0-.43.06-.75.07-1.07s0-.64,0-1.14c-.79,0-1.49,0-2.17,0a2.17,2.17,0,0,1-2.18-2.24,2,2,0,0,1,2.28-2.1c2.23.29,3.15-.62,4.14-2.63a16.76,16.76,0,0,1,24.52-6.5c1.21.84,1.58,1.89,1.05,3a2.2,2.2,0,0,1-2.74,1.09,8.9,8.9,0,0,1-1.29-.75,12.53,12.53,0,0,0-17.67,5.16c-.07.14-.12.29-.25.63h6.89c.91,0,1.83,0,2.74,0a2.2,2.2,0,1,1-.09,4.39c-3.12,0-6.23,0-9.35,0H238.2v2.16H242c2.24,0,4.49,0,6.73,0a2.29,2.29,0,0,1,2.52,2.2c0,1.32-1,2.2-2.61,2.21-3.07,0-6.13,0-9.4,0,.27.53.44.94.66,1.31a12.57,12.57,0,0,0,17.66,4.29,3.62,3.62,0,0,1,2.52-.46,2.28,2.28,0,0,1,1.27,1.74,2.81,2.81,0,0,1-1,2.06,15.64,15.64,0,0,1-11.8,2.89c-6.69-1-11.22-4.84-13.75-11.08C234.73,47.31,234.62,47.09,234.49,46.79Z" transform="translate(0 0)"/><g class="cls-2"><path d="M28.49,259.79c-.94,0-1.89,0-2.84,0a2.2,2.2,0,1,1-.11-4.39c.66,0,1.32,0,2,0,0-.43.06-.75.07-1.07s0-.64,0-1.14c-.79,0-1.49,0-2.17,0a2.17,2.17,0,0,1-2.18-2.24,2,2,0,0,1,2.28-2.1c2.23.29,3.15-.62,4.14-2.63a16.76,16.76,0,0,1,24.52-6.5c1.21.84,1.58,1.89,1.05,3a2.2,2.2,0,0,1-2.74,1.09,8.9,8.9,0,0,1-1.29-.75,12.53,12.53,0,0,0-17.67,5.16c-.07.14-.12.29-.25.63h6.89c.91,0,1.83,0,2.74,0a2.2,2.2,0,1,1-.09,4.39c-3.12,0-6.23,0-9.35,0H32.2v2.16H36c2.24,0,4.49,0,6.73,0a2.29,2.29,0,0,1,2.52,2.2c0,1.32-1,2.2-2.61,2.21-3.07,0-6.13,0-9.4,0,.27.53.44.94.66,1.31a12.57,12.57,0,0,0,17.66,4.29,3.62,3.62,0,0,1,2.52-.46,2.28,2.28,0,0,1,1.27,1.74,2.81,2.81,0,0,1-1,2.06,15.64,15.64,0,0,1-11.8,2.89c-6.69-1-11.22-4.84-13.75-11.08C28.73,260.31,28.62,260.09,28.49,259.79Z" transform="translate(0 0)"/></g><path class="cls-3" d="M27.49,258.79c-.94,0-1.89,0-2.84,0a2.2,2.2,0,1,1-.11-4.39c.66,0,1.32,0,2,0,0-.43.06-.75.07-1.07s0-.64,0-1.14c-.79,0-1.49,0-2.17,0a2.17,2.17,0,0,1-2.18-2.24,2,2,0,0,1,2.28-2.1c2.23.29,3.15-.62,4.14-2.63a16.76,16.76,0,0,1,24.52-6.5c1.21.84,1.58,1.89,1.05,3a2.2,2.2,0,0,1-2.74,1.09,8.9,8.9,0,0,1-1.29-.75,12.53,12.53,0,0,0-17.67,5.16c-.07.14-.12.29-.25.63h6.89c.91,0,1.83,0,2.74,0a2.2,2.2,0,1,1-.09,4.39c-3.12,0-6.23,0-9.35,0H31.2v2.16H35c2.24,0,4.49,0,6.73,0a2.29,2.29,0,0,1,2.52,2.2c0,1.32-1,2.2-2.61,2.21-3.07,0-6.13,0-9.4,0,.27.53.44.94.66,1.31a12.57,12.57,0,0,0,17.66,4.29,3.62,3.62,0,0,1,2.52-.46,2.28,2.28,0,0,1,1.27,1.74,2.81,2.81,0,0,1-1,2.06,15.64,15.64,0,0,1-11.8,2.89c-6.69-1-11.22-4.84-13.75-11.08C27.73,259.31,27.62,259.09,27.49,258.79Z" transform="translate(0 0)"/><g class="cls-2"><path d="M235.49,259.79c-.94,0-1.89,0-2.84,0a2.2,2.2,0,1,1-.11-4.39c.66,0,1.32,0,2,0,0-.43.06-.75.07-1.07s0-.64,0-1.14c-.79,0-1.49,0-2.17,0a2.17,2.17,0,0,1-2.18-2.24,2,2,0,0,1,2.28-2.1c2.23.29,3.15-.62,4.14-2.63a16.76,16.76,0,0,1,24.52-6.5c1.21.84,1.58,1.89,1.05,3a2.2,2.2,0,0,1-2.74,1.09,8.9,8.9,0,0,1-1.29-.75,12.53,12.53,0,0,0-17.67,5.16c-.07.14-.12.29-.25.63h6.89c.91,0,1.83,0,2.74,0a2.2,2.2,0,1,1-.09,4.39c-3.12,0-6.23,0-9.35,0H239.2v2.16H243c2.24,0,4.49,0,6.73,0a2.29,2.29,0,0,1,2.52,2.2c0,1.32-1,2.2-2.61,2.21-3.07,0-6.13,0-9.4,0,.27.53.44.94.66,1.31a12.57,12.57,0,0,0,17.66,4.29,3.62,3.62,0,0,1,2.52-.46,2.28,2.28,0,0,1,1.27,1.74,2.81,2.81,0,0,1-1,2.06,15.64,15.64,0,0,1-11.8,2.89c-6.69-1-11.22-4.84-13.75-11.08C235.73,260.31,235.62,260.09,235.49,259.79Z" transform="translate(0 0)"/></g><path class="cls-3" d="M234.49,258.79c-.94,0-1.89,0-2.84,0a2.2,2.2,0,1,1-.11-4.39c.66,0,1.32,0,2,0,0-.43.06-.75.07-1.07s0-.64,0-1.14c-.79,0-1.49,0-2.17,0a2.17,2.17,0,0,1-2.18-2.24,2,2,0,0,1,2.28-2.1c2.23.29,3.15-.62,4.14-2.63a16.76,16.76,0,0,1,24.52-6.5c1.21.84,1.58,1.89,1.05,3a2.2,2.2,0,0,1-2.74,1.09,8.9,8.9,0,0,1-1.29-.75,12.53,12.53,0,0,0-17.67,5.16c-.07.14-.12.29-.25.63h6.89c.91,0,1.83,0,2.74,0a2.2,2.2,0,1,1-.09,4.39c-3.12,0-6.23,0-9.35,0H238.2v2.16H242c2.24,0,4.49,0,6.73,0a2.29,2.29,0,0,1,2.52,2.2c0,1.32-1,2.2-2.61,2.21-3.07,0-6.13,0-9.4,0,.27.53.44.94.66,1.31a12.57,12.57,0,0,0,17.66,4.29,3.62,3.62,0,0,1,2.52-.46,2.28,2.28,0,0,1,1.27,1.74,2.81,2.81,0,0,1-1,2.06,15.64,15.64,0,0,1-11.8,2.89c-6.69-1-11.22-4.84-13.75-11.08C234.73,259.31,234.62,259.09,234.49,258.79Z" transform="translate(0 0)"/><g class="cls-2"><path d="M73.24,66.81,81,75c0-.92.06-1.76.12-2.58.14-2,1.29-3.57,3.25-3.25,1.31.21,3.34,1.65,3.43,2.68a77.51,77.51,0,0,1,0,13.32c-.08,1-2.24,2.36-3.54,2.49-3.55.35-7.15.11-10.73.13-2.27,0-3.83-.93-3.92-3.3S71,81,73.28,80.8c.66,0,1.33,0,1.87,0l-7.93-7.44C46.6,89.57,19.71,80.93,8.52,65-3.29,48.15-.94,25.12,14.34,11.49a40.85,40.85,0,0,1,54.79.12A40.32,40.32,0,0,1,73.24,66.81Zm2.25-25.5A33.77,33.77,0,0,0,8,41.53C8,59.89,23.29,74.9,41.86,74.84A33.61,33.61,0,0,0,75.49,41.31Z" transform="translate(0 0)"/><path d="M223.6,72.62l-8.18,7.92c1.22,0,2.14,0,3,0,2,.13,3.29,1.43,3,3.17-.22,1.32-1.59,3.38-2.6,3.47a81.06,81.06,0,0,1-13,.06c-2.17-.16-3.08-2.15-3.11-4.3,0-3.29,0-6.58,0-9.87,0-2.32.88-4.05,3.48-4.07s3.51,1.63,3.49,4c0,.56.06,1.12.07,1.29l7.69-7.76c-7.73-9.7-10.53-21.4-7.69-34.24A38.85,38.85,0,0,1,225.51,8.71a41.37,41.37,0,0,1,54,5.16,39.92,39.92,0,0,1,1.67,52.57C269,81.54,244.15,88.26,223.6,72.62ZM215.72,41.4a33.78,33.78,0,0,0,67.56.29,33.78,33.78,0,0,0-67.56-.29Z" transform="translate(0 0)"/><path d="M67.57,222.09l7.83-7.73c-.84,0-1.76-.06-2.67-.13-2-.17-3.28-1.46-3-3.2.23-1.32,1.61-3.37,2.62-3.46a80.77,80.77,0,0,1,13,0c2.17.16,3.07,2.16,3.09,4.31q0,4.93,0,9.87c0,2.31-.89,4.06-3.49,4.07s-3.51-1.64-3.48-4c0-.56-.06-1.11-.08-1.33l-7.7,7.8c7.67,9.65,10.53,21.24,7.75,34a39,39,0,0,1-15.65,23.67,41.12,41.12,0,0,1-54-4.78,40,40,0,0,1-2-52.56C21.92,213.41,46.82,206.35,67.57,222.09Zm7.93,31.29a33.57,33.57,0,0,0-33.72-33.45A33.44,33.44,0,0,0,8,253.26a33.77,33.77,0,0,0,67.54.13Z" transform="translate(0 0)"/><path d="M218.32,227.71l-7.73-7.83c0,.84-.06,1.76-.13,2.67-.17,2-1.46,3.28-3.2,3-1.32-.23-3.37-1.61-3.46-2.62a80.77,80.77,0,0,1,0-13c.16-2.17,2.16-3.07,4.31-3.09q4.93,0,9.87,0c2.31,0,4.06.89,4.07,3.49s-1.64,3.51-4,3.48c-.56,0-1.11.06-1.33.08l7.8,7.7c9.65-7.67,21.24-10.53,34-7.75a39,39,0,0,1,23.67,15.65,41.12,41.12,0,0,1-4.78,54,40,40,0,0,1-52.56,2C209.64,273.36,202.58,248.45,218.32,227.71Zm31.29-7.93A33.77,33.77,0,1,0,283,253.59,33.57,33.57,0,0,0,249.61,219.78Z" transform="translate(0 0)"/><path d="M62.06,149.51c-3.19,0-6.37,0-9.56,0-2.29,0-4.07-.8-4.05-3.44s1.62-3.52,4-3.51H71.56c2.23,0,3.8.8,3.88,3.27s-1.46,3.63-3.82,3.67C68.43,149.55,65.24,149.51,62.06,149.51Z" transform="translate(0 0)"/><path d="M240.45,142.56h9.28c2.24,0,3.81.84,3.85,3.31s-1.46,3.57-3.66,3.61c-6.38.09-12.76.08-19.13,0-2.27,0-3.62-1.26-3.52-3.66s1.47-3.23,3.62-3.24C234.07,142.55,237.26,142.56,240.45,142.56Z" transform="translate(0 0)"/><path d="M76.64,127.11c-6.3-1.44-11.9-2.55-17.36-4.14-1-.29-2.17-2.67-1.93-3.81s2.31-2.82,3.32-2.65a154.69,154.69,0,0,1,17,3.77c1,.27,2,2.68,1.83,3.9S77.48,126.3,76.64,127.11Z" transform="translate(0 0)"/><path d="M59.65,176.29c-.87-.93-2.69-2-2.7-3.08,0-1.37,1.18-3.65,2.31-4a138.1,138.1,0,0,1,16.37-3.63c1.06-.17,3.2,1.41,3.45,2.5s-.85,3.64-1.83,3.93C71.72,173.66,66,174.81,59.65,176.29Z" transform="translate(0 0)"/><path d="M225.92,165.54c6.18,1.48,11.66,2.61,17,4.22,1,.29,2,2.69,1.75,3.93-.17,1-2.23,2.68-3.17,2.51A158.3,158.3,0,0,1,225,172.27c-.93-.27-2-2.55-1.75-3.68S225.07,166.42,225.92,165.54Z" transform="translate(0 0)"/><path d="M226,126.8c-.85-.88-2.67-1.92-2.71-3,0-1.36,1.12-3.66,2.24-4A115.39,115.39,0,0,1,241,116.19c1.14-.18,3.28,1.42,3.69,2.63.34,1-.94,3.51-2,3.82C237.44,124.24,232,125.34,226,126.8Z" transform="translate(0 0)"/></g><path class="cls-3" d="M72.24,65.81,80,74c0-.92.06-1.76.12-2.58.14-2,1.29-3.57,3.25-3.25,1.31.21,3.34,1.65,3.43,2.68a77.51,77.51,0,0,1,0,13.32c-.08,1-2.24,2.36-3.54,2.49-3.55.35-7.15.11-10.73.13-2.27,0-3.83-.93-3.92-3.3S70,80,72.28,79.8c.66,0,1.33,0,1.87,0l-7.93-7.44C45.6,88.57,18.71,79.93,7.52,64-4.29,47.15-1.94,24.12,13.34,10.49a40.85,40.85,0,0,1,54.79.12A40.32,40.32,0,0,1,72.24,65.81Zm2.25-25.5A33.77,33.77,0,0,0,7,40.53C7,58.89,22.29,73.9,40.86,73.84A33.61,33.61,0,0,0,74.49,40.31Z" transform="translate(0 0)"/><path class="cls-3" d="M222.6,71.62l-8.18,7.92c1.22,0,2.14,0,3,0,2,.13,3.29,1.43,3,3.17-.22,1.32-1.59,3.38-2.6,3.47a81.06,81.06,0,0,1-13,.06c-2.17-.16-3.08-2.15-3.11-4.3,0-3.29,0-6.58,0-9.87,0-2.32.88-4.05,3.48-4.07s3.51,1.63,3.49,4c0,.56.06,1.12.07,1.29l7.69-7.76c-7.73-9.7-10.53-21.4-7.69-34.24A38.85,38.85,0,0,1,224.51,7.71a41.37,41.37,0,0,1,54,5.16,39.92,39.92,0,0,1,1.67,52.57C268,80.54,243.15,87.26,222.6,71.62ZM214.72,40.4a33.78,33.78,0,0,0,67.56.29,33.78,33.78,0,0,0-67.56-.29Z" transform="translate(0 0)"/><path class="cls-3" d="M66.57,221.09l7.83-7.73c-.84,0-1.76-.06-2.67-.13-2-.17-3.28-1.46-3-3.2.23-1.32,1.61-3.37,2.62-3.46a80.77,80.77,0,0,1,13,0c2.17.16,3.07,2.16,3.09,4.31q0,4.93,0,9.87c0,2.31-.89,4.06-3.49,4.07s-3.51-1.64-3.48-4c0-.56-.06-1.11-.08-1.33l-7.7,7.8c7.67,9.65,10.53,21.24,7.75,34a39,39,0,0,1-15.65,23.67,41.12,41.12,0,0,1-54-4.78,40,40,0,0,1-2-52.56C20.92,212.41,45.82,205.35,66.57,221.09Zm7.93,31.29a33.57,33.57,0,0,0-33.72-33.45A33.44,33.44,0,0,0,7,252.26a33.77,33.77,0,0,0,67.54.13Z" transform="translate(0 0)"/><path class="cls-3" d="M217.32,226.71l-7.73-7.83c0,.84-.06,1.76-.13,2.67-.17,2-1.46,3.28-3.2,3-1.32-.23-3.37-1.61-3.46-2.62a80.77,80.77,0,0,1,0-13c.16-2.17,2.16-3.07,4.31-3.09q4.93,0,9.87,0c2.31,0,4.06.89,4.07,3.49s-1.64,3.51-4,3.48c-.56,0-1.11.06-1.33.08l7.8,7.7c9.65-7.67,21.24-10.53,34-7.75a39,39,0,0,1,23.67,15.65,41.12,41.12,0,0,1-4.78,54,40,40,0,0,1-52.56,2C208.64,272.36,201.58,247.45,217.32,226.71Zm31.29-7.93A33.77,33.77,0,1,0,282,252.59,33.57,33.57,0,0,0,248.61,218.78Z" transform="translate(0 0)"/><path class="cls-3" d="M61.06,148.51c-3.19,0-6.37,0-9.56,0-2.29,0-4.07-.8-4.05-3.44s1.62-3.52,4-3.51H70.56c2.23,0,3.8.8,3.88,3.27s-1.46,3.63-3.82,3.67C67.43,148.55,64.24,148.51,61.06,148.51Z" transform="translate(0 0)"/><path class="cls-3" d="M239.45,141.56h9.28c2.24,0,3.81.84,3.85,3.31s-1.46,3.57-3.66,3.61c-6.38.09-12.76.08-19.13,0-2.27,0-3.62-1.26-3.52-3.66s1.47-3.23,3.62-3.24C233.07,141.55,236.26,141.56,239.45,141.56Z" transform="translate(0 0)"/><path class="cls-3" d="M75.64,126.11c-6.3-1.44-11.9-2.55-17.36-4.14-1-.29-2.17-2.67-1.93-3.81s2.31-2.82,3.32-2.65a154.69,154.69,0,0,1,17,3.77c1,.27,2,2.68,1.83,3.9S76.48,125.3,75.64,126.11Z" transform="translate(0 0)"/><path class="cls-3" d="M58.65,175.29c-.87-.93-2.69-2-2.7-3.08,0-1.37,1.18-3.65,2.31-4a138.1,138.1,0,0,1,16.37-3.63c1.06-.17,3.2,1.41,3.45,2.5s-.85,3.64-1.83,3.93C70.72,172.66,65,173.81,58.65,175.29Z" transform="translate(0 0)"/><path class="cls-3" d="M224.92,164.54c6.18,1.48,11.66,2.61,17,4.22,1,.29,2,2.69,1.75,3.93-.17,1-2.23,2.68-3.17,2.51A158.3,158.3,0,0,1,224,171.27c-.93-.27-2-2.55-1.75-3.68S224.07,165.42,224.92,164.54Z" transform="translate(0 0)"/><path class="cls-3" d="M225,125.8c-.85-.88-2.67-1.92-2.71-3,0-1.36,1.12-3.66,2.24-4A115.39,115.39,0,0,1,240,115.19c1.14-.18,3.28,1.42,3.69,2.63.34,1-.94,3.51-2,3.82C236.44,123.24,231,124.34,225,125.8Z" transform="translate(0 0)"/><g class="cls-2"><path class="cls-4" d="M90.58,123.45a.88.88,0,0,1,.71-.89l9-1.26c4.09-.58,7.6,2.77,8.21,7.1.76,5.44-2.87,10.74-8.18,11.49l-3.35.47v9.8a.92.92,0,0,1-.71.89l-5,.7c-.41.06-.67-.28-.68-.7Zm9.34,10.4c1.43-.2,2.59-2,2.3-4.12-.2-1.43-1.17-2.42-2.28-2.27l-3,.42,0,6.38Zm24.18-16.32c6.34-.89,12.21,4.12,13.21,11.19,1.29,9.2-4.45,17.6-13,18.8-6.3.88-12.2-4-13.19-11.07C109.79,127.21,115.6,118.72,124.11,117.53Zm6.61,12.91c-.54-3.84-3.28-6.71-6.55-6.25-4,.56-7.21,5.39-6.49,10.46.53,3.8,3.27,6.67,6.5,6.22C128.22,140.3,131.43,135.51,130.72,130.44Zm11.71-14.28a.88.88,0,0,1,.71-.89l5.07-.71a.66.66,0,0,1,.68.7v22.27l8.34-1.17c.41-.06.67.28.68.7v4.54a.89.89,0,0,1-.71.89l-14.07,2a.66.66,0,0,1-.72-.69Zm19.26-2.71a.88.88,0,0,1,.67-.88l5.11-.72a.66.66,0,0,1,.68.7v27.6a.88.88,0,0,1-.67.89l-5.11.72a.65.65,0,0,1-.68-.7Zm11.64,25.85,4-28.58A.8.8,0,0,1,178,110l.57-.08a.63.63,0,0,1,.63.33L187.69,127h.08l9.13-19.3a.75.75,0,0,1,.64-.51l.61-.09a.61.61,0,0,1,.62.58l4.07,27.45a.91.91,0,0,1-.73,1l-5,.71a.67.67,0,0,1-.7-.57l-1.33-12.7H195L189,138a.9.9,0,0,1-.63.55l-.65.09a.62.62,0,0,1-.64-.37l-6-12.67H181l-1.25,13.06a.85.85,0,0,1-.73.77l-5,.71A.64.64,0,0,1,173.32,139.3Zm34.73-32.36a.88.88,0,0,1,.67-.89l5.11-.72a.66.66,0,0,1,.68.7v27.6a.88.88,0,0,1-.67.89l-5.11.72a.65.65,0,0,1-.68-.7ZM90.48,158.45a.88.88,0,0,1,.71-.89l9-1.26c4.09-.58,7.6,2.77,8.21,7.1.76,5.44-2.87,10.75-8.18,11.49l-3.35.47v9.8a.92.92,0,0,1-.71.89l-5,.7c-.41.06-.67-.28-.68-.7Zm9.34,10.4c1.43-.2,2.59-2,2.3-4.12-.2-1.43-1.18-2.42-2.28-2.27l-3,.42,0,6.38Zm12.9-13.53a.88.88,0,0,1,.67-.88l11-1.55c4.3-.6,7.69,2.46,8.28,6.67a9.56,9.56,0,0,1-5.39,10.31l5,9.89a.88.88,0,0,1-.61,1.29l-5.28.74a.57.57,0,0,1-.62-.29l-4.88-10.37-1.8.25V182a.87.87,0,0,1-.67.88l-5.07.71a.61.61,0,0,1-.68-.7Zm10.89,10.15a3.6,3.6,0,0,0,2.78-4.23c-.2-1.43-1.1-2.51-2.58-2.31l-4.7.66v6.5Zm14.54-13.72a.88.88,0,0,1,.67-.88l5.11-.72a.65.65,0,0,1,.68.7v27.6a.87.87,0,0,1-.67.88l-5.11.72a.65.65,0,0,1-.68-.7Zm13.29-1.87a.88.88,0,0,1,.67-.89l9.12-1.28c6.46-.91,11.94,4.54,12.83,10.87,1.25,8.87-4.18,17.1-12.81,18.31l-9.16,1.29a.61.61,0,0,1-.64-.7Zm9.48,20.89c4.21-.59,7.12-5.38,6.37-10.74-.54-3.84-3.06-6.62-6.37-6.15l-3.07.43v16.89ZM179.16,146a.88.88,0,0,1,.67-.88l15.42-2.17a.66.66,0,0,1,.72.69l0,4.55a.84.84,0,0,1-.67.88l-9.73,1.37,0,5.18,7.93-1.12a.68.68,0,0,1,.72.69l0,4.55a.91.91,0,0,1-.71.89l-7.89,1.11v5.63l9.73-1.37c.41-.06.67.28.68.7v4.54a.88.88,0,0,1-.71.89l-15.42,2.17a.61.61,0,0,1-.68-.7Z" transform="translate(0 0)"/></g><path class="cls-3" d="M89.4,122.26a.88.88,0,0,1,.71-.89l9-1.26c4.09-.58,7.6,2.77,8.21,7.1.76,5.44-2.87,10.74-8.18,11.49l-3.35.47V149a.92.92,0,0,1-.71.89l-5,.7c-.41.06-.67-.28-.68-.7Zm9.34,10.4c1.43-.2,2.59-2,2.3-4.12-.2-1.43-1.17-2.42-2.28-2.27l-3,.42,0,6.38Zm24.18-16.32c6.34-.89,12.21,4.12,13.21,11.19,1.29,9.2-4.45,17.6-13,18.8-6.3.88-12.2-4-13.19-11.07C108.61,126,114.42,117.54,122.92,116.35Zm6.61,12.91c-.54-3.84-3.28-6.71-6.55-6.25-4,.56-7.21,5.39-6.49,10.46.53,3.8,3.27,6.67,6.5,6.22C127,139.12,130.25,134.33,129.53,129.26ZM141.25,115a.88.88,0,0,1,.71-.89l5.07-.71a.66.66,0,0,1,.68.7v22.27l8.34-1.17c.41-.06.67.28.68.7v4.54a.89.89,0,0,1-.71.89l-14.07,2a.66.66,0,0,1-.72-.69Zm19.26-2.71a.88.88,0,0,1,.67-.88l5.11-.72a.66.66,0,0,1,.68.7V139a.88.88,0,0,1-.67.89l-5.11.72a.65.65,0,0,1-.68-.7Zm11.64,25.85,4-28.58a.8.8,0,0,1,.69-.76l.57-.08a.63.63,0,0,1,.63.33l8.49,16.82h.08l9.13-19.3a.75.75,0,0,1,.64-.51l.61-.09a.61.61,0,0,1,.62.58L201.66,134a.91.91,0,0,1-.73,1l-5,.71a.67.67,0,0,1-.7-.57l-1.33-12.7h-.08l-5.95,14.35a.9.9,0,0,1-.63.55l-.65.09a.62.62,0,0,1-.64-.37l-6-12.67h-.08l-1.25,13.06a.85.85,0,0,1-.73.77l-5,.71A.64.64,0,0,1,172.14,138.12Zm34.73-32.36a.88.88,0,0,1,.67-.89l5.11-.72a.66.66,0,0,1,.68.7v27.6a.88.88,0,0,1-.67.89l-5.11.72a.65.65,0,0,1-.68-.7ZM89.3,157.27a.88.88,0,0,1,.71-.89l9-1.26c4.09-.58,7.6,2.77,8.21,7.1.76,5.44-2.87,10.75-8.18,11.49l-3.35.47V184a.92.92,0,0,1-.71.89l-5,.7c-.41.06-.67-.28-.68-.7Zm9.34,10.4c1.43-.2,2.59-2,2.3-4.12-.2-1.43-1.18-2.42-2.28-2.27l-3,.42,0,6.38Zm12.9-13.53a.88.88,0,0,1,.67-.88l11-1.55c4.3-.6,7.69,2.46,8.28,6.67a9.56,9.56,0,0,1-5.39,10.31l5,9.89a.88.88,0,0,1-.61,1.29l-5.28.74a.57.57,0,0,1-.62-.29L119.76,170l-1.8.25v10.64a.87.87,0,0,1-.67.88l-5.07.71a.61.61,0,0,1-.68-.7Zm10.89,10.15a3.6,3.6,0,0,0,2.78-4.23c-.2-1.43-1.1-2.51-2.58-2.31l-4.7.66v6.5ZM137,150.57a.88.88,0,0,1,.67-.88l5.11-.72a.65.65,0,0,1,.68.7v27.6a.87.87,0,0,1-.67.88l-5.11.72a.65.65,0,0,1-.68-.7Zm13.29-1.87a.88.88,0,0,1,.67-.89l9.12-1.28c6.46-.91,11.94,4.54,12.83,10.87,1.25,8.87-4.18,17.1-12.81,18.31L150.9,177a.61.61,0,0,1-.64-.7Zm9.48,20.89c4.21-.59,7.12-5.38,6.37-10.74-.54-3.84-3.06-6.62-6.37-6.15l-3.07.43V170ZM178,144.81a.88.88,0,0,1,.67-.88l15.42-2.17a.66.66,0,0,1,.72.69l0,4.55a.84.84,0,0,1-.67.88l-9.73,1.37,0,5.18,7.93-1.12a.68.68,0,0,1,.72.69l0,4.55a.91.91,0,0,1-.71.89l-7.89,1.11v5.63l9.73-1.37c.41-.06.67.28.68.7V170a.88.88,0,0,1-.71.89l-15.42,2.17a.61.61,0,0,1-.68-.7Z" transform="translate(0 0)"/></g></g></g></g></svg>