<svg xmlns="http://www.w3.org/2000/svg" viewBox="0 0 74.07 72.69"><defs><style>.cls-1{isolation:isolate;}.cls-2{mix-blend-mode:multiply;}.cls-3{fill:#fff;}</style></defs><title>Risorsa 14</title><g class="cls-1"><g id="Livello_2" data-name="Livello 2"><g id="HomePage_Fissa" data-name="HomePage Fissa"><g id="Sott.1"><g class="cls-2"><path d="M2.18,50.59l33.69-1.07c-1.19,1.19-2.73,2.57-4.09,4.12-4.66,5.31-5.28,11,.07,15.93s10.89,3.64,15.84-1.37c7.8-7.9,16.23-15.27,23.24-23.81,2.58-3.14,4.23-10.94,2.3-13.22A240.3,240.3,0,0,0,44,2C41.5,0,33.9,1.27,30.57,3.66c-5,3.59-4.16,9.47,0,14.24,1.69,1.94,3.47,3.81,5.41,5.92L1,23Z"/></g><path class="cls-3" d="M1.18,49.59l33.69-1.07c-1.19,1.19-2.73,2.57-4.09,4.12-4.66,5.31-5.28,11,.07,15.93s10.89,3.64,15.84-1.37c7.8-7.9,16.23-15.27,23.24-23.81,2.58-3.14,4.23-10.94,2.3-13.22A240.3,240.3,0,0,0,43,1C40.5-1,32.9.27,29.57,2.66c-5,3.59-4.16,9.47,0,14.24,1.69,1.94,3.47,3.81,5.41,5.92L0,22Z"/></g></g></g></g></svg>