<svg xmlns="http://www.w3.org/2000/svg" viewBox="0 0 1622.03 294.28"><defs><style>.cls-1{isolation:isolate;}
    .cls-2{mix-blend-mode:multiply;fill:#000000;}.cls-3{fill:#fff;}</style></defs><title>Infographics</title><g
        class="cls-1"><g
        id="Livello_2" data-name="Livello 2"><g id="HomePage_Fissa" data-name="HomePage Fissa"><g id="Sott.1"><g class="cls-2"><path d="M482,47.79c-.94,0-1.89,0-2.84,0a2.2,2.2,0,1,1-.12-4.39c.66,0,1.32,0,2.05,0,0-.42.06-.74.07-1.06s0-.65,0-1.14c-.79,0-1.49,0-2.17,0a2.18,2.18,0,0,1-2.19-2.24,2,2,0,0,1,2.28-2.11c2.23.29,3.15-.62,4.14-2.63a16.77,16.77,0,0,1,24.52-6.5c1.21.84,1.58,1.89,1.05,3a2.2,2.2,0,0,1-2.75,1.09,8.73,8.73,0,0,1-1.28-.75,12.53,12.53,0,0,0-17.67,5.16c-.07.14-.12.29-.25.62h6.89c.91,0,1.83,0,2.74,0a2.21,2.21,0,1,1-.08,4.4c-3.12,0-6.24,0-9.35,0h-1.33v2.16h3.84c2.24,0,4.49,0,6.73,0a2.28,2.28,0,0,1,2.52,2.2c0,1.32-1,2.2-2.61,2.21h-9.4c.27.53.44.94.67,1.31a12.56,12.56,0,0,0,17.66,4.3,3.59,3.59,0,0,1,2.52-.46,2.25,2.25,0,0,1,1.27,1.73,2.83,2.83,0,0,1-1,2.07,15.65,15.65,0,0,1-11.8,2.89c-6.68-1-11.21-4.84-13.75-11.08C482.25,48.31,482.14,48.09,482,47.79Z"/></g><path class="cls-3" d="M481,46.79c-.94,0-1.89,0-2.84,0a2.2,2.2,0,1,1-.12-4.39c.66,0,1.32,0,2.05,0,0-.42.06-.74.07-1.06s0-.65,0-1.14c-.79,0-1.49,0-2.17,0a2.18,2.18,0,0,1-2.19-2.24,2,2,0,0,1,2.28-2.11c2.23.29,3.15-.62,4.14-2.63a16.77,16.77,0,0,1,24.52-6.5c1.21.84,1.58,1.89,1.05,3a2.2,2.2,0,0,1-2.75,1.09,8.73,8.73,0,0,1-1.28-.75,12.53,12.53,0,0,0-17.67,5.16c-.07.14-.12.29-.25.62h6.89c.91,0,1.83,0,2.74,0a2.21,2.21,0,1,1-.08,4.4c-3.12,0-6.24,0-9.35,0h-1.33v2.16h3.84c2.24,0,4.49,0,6.73,0a2.28,2.28,0,0,1,2.52,2.2c0,1.32-1,2.2-2.61,2.21h-9.4c.27.53.44.94.67,1.31a12.56,12.56,0,0,0,17.66,4.3,3.59,3.59,0,0,1,2.52-.46,2.25,2.25,0,0,1,1.27,1.73,2.83,2.83,0,0,1-1,2.07,15.65,15.65,0,0,1-11.8,2.89c-6.68-1-11.21-4.84-13.75-11.08C481.25,47.31,481.14,47.09,481,46.79Z"/><g class="cls-2"><path d="M691,45.79c-.94,0-1.89,0-2.84,0a2.2,2.2,0,1,1-.12-4.39c.66,0,1.32,0,2.05,0,0-.42.06-.74.07-1.06s0-.65,0-1.14c-.79,0-1.49,0-2.17,0a2.18,2.18,0,0,1-2.19-2.24,2,2,0,0,1,2.28-2.11c2.23.29,3.15-.62,4.14-2.63a16.77,16.77,0,0,1,24.52-6.5c1.21.84,1.58,1.89,1,3a2.2,2.2,0,0,1-2.75,1.09,8.73,8.73,0,0,1-1.28-.75,12.53,12.53,0,0,0-17.67,5.16c-.07.14-.12.29-.25.62h6.89c.91,0,1.83,0,2.74,0a2.21,2.21,0,1,1-.08,4.4c-3.12,0-6.24,0-9.35,0h-1.33v2.16h3.84c2.24,0,4.49,0,6.73,0a2.28,2.28,0,0,1,2.52,2.2c0,1.32-1,2.2-2.61,2.21h-9.4c.27.53.44.94.67,1.31a12.56,12.56,0,0,0,17.66,4.3,3.59,3.59,0,0,1,2.52-.46,2.25,2.25,0,0,1,1.27,1.73,2.83,2.83,0,0,1-1,2.07,15.65,15.65,0,0,1-11.8,2.89c-6.68-1-11.21-4.84-13.75-11.08C691.25,46.31,691.14,46.09,691,45.79Z"/></g><path class="cls-3" d="M690,44.79c-.94,0-1.89,0-2.84,0a2.2,2.2,0,1,1-.12-4.39c.66,0,1.32,0,2.05,0,0-.42.06-.74.07-1.06s0-.65,0-1.14c-.79,0-1.49,0-2.17,0a2.18,2.18,0,0,1-2.19-2.24,2,2,0,0,1,2.28-2.11c2.23.29,3.15-.62,4.14-2.63a16.77,16.77,0,0,1,24.52-6.5c1.21.84,1.58,1.89,1,3a2.2,2.2,0,0,1-2.75,1.09,8.73,8.73,0,0,1-1.28-.75,12.53,12.53,0,0,0-17.67,5.16c-.07.14-.12.29-.25.62h6.89c.91,0,1.83,0,2.74,0a2.21,2.21,0,1,1-.08,4.4c-3.12,0-6.24,0-9.35,0h-1.33v2.16h3.84c2.24,0,4.49,0,6.73,0a2.28,2.28,0,0,1,2.52,2.2c0,1.32-1,2.2-2.61,2.21h-9.4c.27.53.44.94.67,1.31a12.56,12.56,0,0,0,17.66,4.3,3.59,3.59,0,0,1,2.52-.46,2.25,2.25,0,0,1,1.27,1.73,2.83,2.83,0,0,1-1,2.07,15.65,15.65,0,0,1-11.8,2.89c-6.68-1-11.21-4.84-13.75-11.08C690.25,45.31,690.14,45.09,690,44.79Z"/><g class="cls-2"><path d="M482,259.79c-.94,0-1.89,0-2.84,0a2.2,2.2,0,1,1-.12-4.39c.66,0,1.32,0,2.05,0,0-.42.06-.74.07-1.06s0-.65,0-1.14c-.79,0-1.49,0-2.17,0a2.18,2.18,0,0,1-2.19-2.24,2,2,0,0,1,2.28-2.11c2.23.29,3.15-.62,4.14-2.63a16.77,16.77,0,0,1,24.52-6.5c1.21.84,1.58,1.89,1.05,3a2.2,2.2,0,0,1-2.75,1.09,8.73,8.73,0,0,1-1.28-.75,12.53,12.53,0,0,0-17.67,5.16c-.07.14-.12.29-.25.62h6.89c.91,0,1.83,0,2.74,0a2.21,2.21,0,1,1-.08,4.4c-3.12,0-6.24,0-9.35,0h-1.33v2.16h3.84c2.24,0,4.49,0,6.73,0a2.28,2.28,0,0,1,2.52,2.2c0,1.32-1,2.2-2.61,2.21-3.07,0-6.13,0-9.4,0,.27.53.44.94.67,1.31a12.56,12.56,0,0,0,17.66,4.3,3.59,3.59,0,0,1,2.52-.46,2.25,2.25,0,0,1,1.27,1.73,2.83,2.83,0,0,1-1,2.07,15.65,15.65,0,0,1-11.8,2.89c-6.68-1-11.21-4.84-13.75-11.08C482.25,260.31,482.14,260.09,482,259.79Z"/></g><path class="cls-3" d="M481,258.79c-.94,0-1.89,0-2.84,0a2.2,2.2,0,1,1-.12-4.39c.66,0,1.32,0,2.05,0,0-.42.06-.74.07-1.06s0-.65,0-1.14c-.79,0-1.49,0-2.17,0a2.18,2.18,0,0,1-2.19-2.24,2,2,0,0,1,2.28-2.11c2.23.29,3.15-.62,4.14-2.63a16.77,16.77,0,0,1,24.52-6.5c1.21.84,1.58,1.89,1.05,3a2.2,2.2,0,0,1-2.75,1.09,8.73,8.73,0,0,1-1.28-.75,12.53,12.53,0,0,0-17.67,5.16c-.07.14-.12.29-.25.62h6.89c.91,0,1.83,0,2.74,0a2.21,2.21,0,1,1-.08,4.4c-3.12,0-6.24,0-9.35,0h-1.33v2.16h3.84c2.24,0,4.49,0,6.73,0a2.28,2.28,0,0,1,2.52,2.2c0,1.32-1,2.2-2.61,2.21-3.07,0-6.13,0-9.4,0,.27.53.44.94.67,1.31a12.56,12.56,0,0,0,17.66,4.3,3.59,3.59,0,0,1,2.52-.46,2.25,2.25,0,0,1,1.27,1.73,2.83,2.83,0,0,1-1,2.07,15.65,15.65,0,0,1-11.8,2.89c-6.68-1-11.21-4.84-13.75-11.08C481.25,259.31,481.14,259.09,481,258.79Z"/><g class="cls-2"><path d="M691,259.79c-.94,0-1.89,0-2.84,0a2.2,2.2,0,1,1-.12-4.39c.66,0,1.32,0,2.05,0,0-.42.06-.74.07-1.06s0-.65,0-1.14c-.79,0-1.49,0-2.17,0a2.18,2.18,0,0,1-2.19-2.24,2,2,0,0,1,2.28-2.11c2.23.29,3.15-.62,4.14-2.63a16.77,16.77,0,0,1,24.52-6.5c1.21.84,1.58,1.89,1,3a2.2,2.2,0,0,1-2.75,1.09,8.73,8.73,0,0,1-1.28-.75,12.53,12.53,0,0,0-17.67,5.16c-.07.14-.12.29-.25.62h6.89c.91,0,1.83,0,2.74,0a2.21,2.21,0,1,1-.08,4.4c-3.12,0-6.24,0-9.35,0h-1.33v2.16h3.84c2.24,0,4.49,0,6.73,0a2.28,2.28,0,0,1,2.52,2.2c0,1.32-1,2.2-2.61,2.21-3.07,0-6.13,0-9.4,0,.27.53.44.94.67,1.31a12.56,12.56,0,0,0,17.66,4.3,3.59,3.59,0,0,1,2.52-.46,2.25,2.25,0,0,1,1.27,1.73,2.83,2.83,0,0,1-1,2.07,15.65,15.65,0,0,1-11.8,2.89c-6.68-1-11.21-4.84-13.75-11.08C691.25,260.31,691.14,260.09,691,259.79Z"/></g><path class="cls-3" d="M690,258.79c-.94,0-1.89,0-2.84,0a2.2,2.2,0,1,1-.12-4.39c.66,0,1.32,0,2.05,0,0-.42.06-.74.07-1.06s0-.65,0-1.14c-.79,0-1.49,0-2.17,0a2.18,2.18,0,0,1-2.19-2.24,2,2,0,0,1,2.28-2.11c2.23.29,3.15-.62,4.14-2.63a16.77,16.77,0,0,1,24.52-6.5c1.21.84,1.58,1.89,1,3a2.2,2.2,0,0,1-2.75,1.09,8.73,8.73,0,0,1-1.28-.75,12.53,12.53,0,0,0-17.67,5.16c-.07.14-.12.29-.25.62h6.89c.91,0,1.83,0,2.74,0a2.21,2.21,0,1,1-.08,4.4c-3.12,0-6.24,0-9.35,0h-1.33v2.16h3.84c2.24,0,4.49,0,6.73,0a2.28,2.28,0,0,1,2.52,2.2c0,1.32-1,2.2-2.61,2.21-3.07,0-6.13,0-9.4,0,.27.53.44.94.67,1.31a12.56,12.56,0,0,0,17.66,4.3,3.59,3.59,0,0,1,2.52-.46,2.25,2.25,0,0,1,1.27,1.73,2.83,2.83,0,0,1-1,2.07,15.65,15.65,0,0,1-11.8,2.89c-6.68-1-11.21-4.84-13.75-11.08C690.25,259.31,690.14,259.09,690,258.79Z"/><g class="cls-2"><path d="M1018.63,237.25l-8.4-4.8a1.15,1.15,0,0,0-.6-.16H1006a1,1,0,0,1,0,.3,6,6,0,0,1-12,0,1.36,1.36,0,0,1,0-.3h-3.64a1.14,1.14,0,0,0-.59.16l-8.4,4.8a1.2,1.2,0,0,0-.56,1.37l2.4,8.4a1.2,1.2,0,0,0,1.44.83L988,247v20.06a1.2,1.2,0,0,0,1.2,1.2h21.6a1.2,1.2,0,0,0,1.2-1.2V247l3.31.82a1.21,1.21,0,0,0,1.45-.83l2.4-8.4A1.2,1.2,0,0,0,1018.63,237.25Z"/></g><path class="cls-3" d="M1017.63,236.25l-8.4-4.8a1.15,1.15,0,0,0-.6-.16H1005a1,1,0,0,1,0,.3,6,6,0,0,1-12,0,1.36,1.36,0,0,1,0-.3h-3.64a1.14,1.14,0,0,0-.59.16l-8.4,4.8a1.2,1.2,0,0,0-.56,1.37l2.4,8.4a1.2,1.2,0,0,0,1.44.83L987,246v20.06a1.2,1.2,0,0,0,1.2,1.2h21.6a1.2,1.2,0,0,0,1.2-1.2V246l3.31.82a1.21,1.21,0,0,0,1.45-.83l2.4-8.4A1.2,1.2,0,0,0,1017.63,236.25Z"/><g class="cls-2"><path d="M1214.63,237.25l-8.4-4.8a1.15,1.15,0,0,0-.6-.16H1202a1,1,0,0,1,0,.3,6,6,0,0,1-12,0,1.36,1.36,0,0,1,0-.3h-3.64a1.14,1.14,0,0,0-.59.16l-8.4,4.8a1.2,1.2,0,0,0-.56,1.37l2.4,8.4a1.2,1.2,0,0,0,1.44.83L1184,247v20.06a1.2,1.2,0,0,0,1.2,1.2h21.6a1.2,1.2,0,0,0,1.2-1.2V247l3.31.82a1.21,1.21,0,0,0,1.45-.83l2.4-8.4A1.2,1.2,0,0,0,1214.63,237.25Z"/></g><path class="cls-3" d="M1213.63,236.25l-8.4-4.8a1.15,1.15,0,0,0-.6-.16H1201a1,1,0,0,1,0,.3,6,6,0,0,1-12,0,1.36,1.36,0,0,1,0-.3h-3.64a1.14,1.14,0,0,0-.59.16l-8.4,4.8a1.2,1.2,0,0,0-.56,1.37l2.4,8.4a1.2,1.2,0,0,0,1.44.83L1183,246v20.06a1.2,1.2,0,0,0,1.2,1.2h21.6a1.2,1.2,0,0,0,1.2-1.2V246l3.31.82a1.21,1.21,0,0,0,1.45-.83l2.4-8.4A1.2,1.2,0,0,0,1213.63,236.25Z"/><g class="cls-2"><path d="M1214.63,34.25l-8.4-4.8a1.15,1.15,0,0,0-.6-.16H1202a1,1,0,0,1,0,.3,6,6,0,0,1-12,0,1.36,1.36,0,0,1,0-.3h-3.64a1.14,1.14,0,0,0-.59.16l-8.4,4.8a1.2,1.2,0,0,0-.56,1.37l2.4,8.4a1.2,1.2,0,0,0,1.44.83L1184,44V64.09a1.2,1.2,0,0,0,1.2,1.2h21.6a1.2,1.2,0,0,0,1.2-1.2V44l3.31.82a1.21,1.21,0,0,0,1.45-.83l2.4-8.4A1.2,1.2,0,0,0,1214.63,34.25Z"/></g><path class="cls-3" d="M1213.63,33.25l-8.4-4.8a1.15,1.15,0,0,0-.6-.16H1201a1,1,0,0,1,0,.3,6,6,0,0,1-12,0,1.36,1.36,0,0,1,0-.3h-3.64a1.14,1.14,0,0,0-.59.16l-8.4,4.8a1.2,1.2,0,0,0-.56,1.37l2.4,8.4a1.2,1.2,0,0,0,1.44.83L1183,43V63.09a1.2,1.2,0,0,0,1.2,1.2h21.6a1.2,1.2,0,0,0,1.2-1.2V43l3.31.82a1.21,1.21,0,0,0,1.45-.83l2.4-8.4A1.2,1.2,0,0,0,1213.63,33.25Z"/><g class="cls-2"><path d="M1018.63,34.25l-8.4-4.8a1.15,1.15,0,0,0-.6-.16H1006a1,1,0,0,1,0,.3,6,6,0,1,1-12,0,1.36,1.36,0,0,1,0-.3h-3.64a1.14,1.14,0,0,0-.59.16l-8.4,4.8a1.2,1.2,0,0,0-.56,1.37l2.4,8.4a1.2,1.2,0,0,0,1.44.83L988,44V64.09a1.2,1.2,0,0,0,1.2,1.2h21.6a1.2,1.2,0,0,0,1.2-1.2V44l3.31.82a1.21,1.21,0,0,0,1.45-.83l2.4-8.4A1.2,1.2,0,0,0,1018.63,34.25Z"/></g><path class="cls-3" d="M1017.63,33.25l-8.4-4.8a1.15,1.15,0,0,0-.6-.16H1005a1,1,0,0,1,0,.3,6,6,0,1,1-12,0,1.36,1.36,0,0,1,0-.3h-3.64a1.14,1.14,0,0,0-.59.16l-8.4,4.8a1.2,1.2,0,0,0-.56,1.37l2.4,8.4a1.2,1.2,0,0,0,1.44.83L987,43V63.09a1.2,1.2,0,0,0,1.2,1.2h21.6a1.2,1.2,0,0,0,1.2-1.2V43l3.31.82a1.21,1.21,0,0,0,1.45-.83l2.4-8.4A1.2,1.2,0,0,0,1017.63,33.25Z"/><g class="cls-2"><path d="M967.45,22c-2.66-2.79-5.16-5.41-7.8-8.16,0,.92-.06,1.75-.11,2.58-.14,2-1.29,3.57-3.25,3.25C955,19.47,953,18,952.86,17a78,78,0,0,1,0-13.32c.08-1,2.24-2.36,3.54-2.49,3.55-.35,7.15-.11,10.73-.13,2.27,0,3.83.93,3.93,3.3s-1.35,3.5-3.62,3.65c-.66,0-1.33,0-1.87,0,2.63,2.48,5.23,4.92,7.93,7.44,20.62-16.21,47.5-7.57,58.7,8.38,11.81,16.83,9.45,39.86-5.82,53.49a40.85,40.85,0,0,1-54.79-.11A40.32,40.32,0,0,1,967.45,22Zm-2.25,25.5a33.77,33.77,0,0,0,67.53-.23c0-18.36-15.33-33.37-33.91-33.31A33.61,33.61,0,0,0,965.2,47.51Z"/><path d="M1220.86,15.88,1229.05,8c-1.22,0-2.14,0-3,0-2-.13-3.3-1.44-3-3.18.22-1.31,1.59-3.38,2.6-3.47a82,82,0,0,1,13-.06c2.17.16,3.09,2.15,3.11,4.3,0,3.29,0,6.58,0,9.87,0,2.32-.88,4.06-3.48,4.07s-3.51-1.62-3.48-4c0-.55-.06-1.11-.07-1.28L1227,22c7.73,9.7,10.53,21.4,7.69,34.23A38.86,38.86,0,0,1,1219,79.8a41.39,41.39,0,0,1-54-5.16,39.93,39.93,0,0,1-1.66-52.57C1175.45,7,1200.31.25,1220.86,15.88Zm7.89,31.22a33.78,33.78,0,0,0-67.56-.29,33.78,33.78,0,0,0,67.56.29Z"/><path d="M973.45,279l-7.83,7.73c.84,0,1.76.06,2.67.13,2,.17,3.28,1.47,3,3.21-.23,1.31-1.61,3.37-2.62,3.45a80.85,80.85,0,0,1-13,0c-2.17-.16-3.07-2.16-3.09-4.31q0-4.94,0-9.87c0-2.31.89-4.06,3.49-4.07s3.5,1.64,3.47,4c0,.56.07,1.12.08,1.34l7.7-7.8c-7.67-9.65-10.53-21.24-7.75-34a39,39,0,0,1,15.65-23.67,41.13,41.13,0,0,1,54,4.78,40,40,0,0,1,2,52.56C1019.11,287.64,994.2,294.7,973.45,279Zm-7.93-31.29a33.78,33.78,0,1,0,33.82-33.42A33.57,33.57,0,0,0,965.52,247.67Z"/><path d="M1226.7,273.34l7.74,7.84c0-.84,0-1.76.13-2.67.17-2,1.46-3.29,3.2-3,1.32.22,3.37,1.6,3.46,2.61a81,81,0,0,1,0,13c-.17,2.16-2.17,3.06-4.32,3.08-3.28,0-6.58,0-9.86,0-2.32,0-4.06-.89-4.07-3.49s1.64-3.51,4-3.48c.56,0,1.11-.06,1.33-.07l-7.79-7.7c-9.65,7.67-21.24,10.53-34,7.75a39,39,0,0,1-23.67-15.66,41.11,41.11,0,0,1,4.78-54,40,40,0,0,1,52.56-2C1235.38,227.69,1242.44,252.6,1226.7,273.34Zm-31.29,7.93A33.77,33.77,0,1,0,1162,247.46,33.56,33.56,0,0,0,1195.41,281.27Z"/><path d="M1013.58,149.51c-3.19,0-6.37,0-9.56,0-2.29,0-4.07-.8-4-3.44s1.62-3.52,4-3.52h19.12c2.22,0,3.79.8,3.88,3.28s-1.47,3.63-3.83,3.67C1020,149.55,1016.76,149.51,1013.58,149.51Z"/><path d="M1192,142.56h9.28c2.24,0,3.81.84,3.85,3.31s-1.46,3.57-3.66,3.6q-9.56.14-19.13,0c-2.27,0-3.62-1.25-3.52-3.66s1.47-3.23,3.61-3.25Z"/><path d="M1028.15,127.11c-6.29-1.44-11.89-2.55-17.36-4.14-1-.29-2.17-2.67-1.93-3.8s2.31-2.82,3.32-2.66a155.85,155.85,0,0,1,17,3.77c1,.28,2,2.68,1.83,3.9S1029,126.3,1028.15,127.11Z"/><path d="M1011.17,176.29c-.87-.92-2.69-2-2.7-3.08,0-1.37,1.19-3.65,2.32-4a138.15,138.15,0,0,1,16.37-3.63c1.06-.17,3.2,1.41,3.45,2.5s-.85,3.64-1.83,3.93C1023.24,173.66,1017.56,174.81,1011.17,176.29Z"/><path d="M1177.44,165.54c6.18,1.48,11.65,2.61,17,4.22,1,.29,2,2.7,1.75,3.93-.17,1-2.23,2.68-3.17,2.51a159.23,159.23,0,0,1-16.52-3.93c-.92-.27-2-2.55-1.75-3.68S1176.59,166.42,1177.44,165.54Z"/><path d="M1177.47,126.8c-.84-.87-2.67-1.92-2.71-3,0-1.36,1.13-3.66,2.25-4a114.94,114.94,0,0,1,15.47-3.59c1.13-.18,3.27,1.42,3.69,2.63.34,1-.94,3.5-2,3.82C1189,124.24,1183.57,125.34,1177.47,126.8Z"/></g><path class="cls-3" d="M966.45,21c-2.66-2.79-5.16-5.41-7.8-8.16,0,.92-.06,1.75-.11,2.58-.14,2-1.29,3.57-3.25,3.25C954,18.47,952,17,951.86,16a78,78,0,0,1,0-13.32c.08-1,2.24-2.36,3.54-2.49,3.55-.35,7.15-.11,10.73-.13,2.27,0,3.83.93,3.93,3.3s-1.35,3.5-3.62,3.65c-.66,0-1.33,0-1.87,0,2.63,2.48,5.23,4.92,7.93,7.44,20.62-16.21,47.5-7.57,58.7,8.38,11.81,16.83,9.45,39.86-5.82,53.49a40.85,40.85,0,0,1-54.79-.11A40.32,40.32,0,0,1,966.45,21Zm-2.25,25.5a33.77,33.77,0,0,0,67.53-.23c0-18.36-15.33-33.37-33.91-33.31A33.61,33.61,0,0,0,964.2,46.51Z"/><path class="cls-3" d="M1219.86,14.88,1228.05,7c-1.22,0-2.14,0-3,0-2-.13-3.3-1.44-3-3.18.22-1.31,1.59-3.38,2.6-3.47a82,82,0,0,1,13-.06c2.17.16,3.09,2.15,3.11,4.3,0,3.29,0,6.58,0,9.87,0,2.32-.88,4.06-3.48,4.07s-3.51-1.62-3.48-4c0-.55-.06-1.11-.07-1.28L1226,21c7.73,9.7,10.53,21.4,7.69,34.23A38.86,38.86,0,0,1,1218,78.8a41.39,41.39,0,0,1-54-5.16,39.93,39.93,0,0,1-1.66-52.57C1174.45,6,1199.31-.75,1219.86,14.88Zm7.89,31.22a33.78,33.78,0,0,0-67.56-.29,33.78,33.78,0,0,0,67.56.29Z"/><path class="cls-3" d="M972.45,278l-7.83,7.73c.84,0,1.76.06,2.67.13,2,.17,3.28,1.47,3,3.21-.23,1.31-1.61,3.37-2.62,3.45a80.85,80.85,0,0,1-13,0c-2.17-.16-3.07-2.16-3.09-4.31q0-4.94,0-9.87c0-2.31.89-4.06,3.49-4.07s3.5,1.64,3.47,4c0,.56.07,1.12.08,1.34l7.7-7.8c-7.67-9.65-10.53-21.24-7.75-34a39,39,0,0,1,15.65-23.67,41.13,41.13,0,0,1,54,4.78,40,40,0,0,1,2,52.56C1018.11,286.64,993.2,293.7,972.45,278Zm-7.93-31.29a33.78,33.78,0,1,0,33.82-33.42A33.57,33.57,0,0,0,964.52,246.67Z"/><path class="cls-3" d="M1225.7,272.34l7.74,7.84c0-.84,0-1.76.13-2.67.17-2,1.46-3.29,3.2-3,1.32.22,3.37,1.6,3.46,2.61a81,81,0,0,1,0,13c-.17,2.16-2.17,3.06-4.32,3.08-3.28,0-6.58,0-9.86,0-2.32,0-4.06-.89-4.07-3.49s1.64-3.51,4-3.48c.56,0,1.11-.06,1.33-.07l-7.79-7.7c-9.65,7.67-21.24,10.53-34,7.75a39,39,0,0,1-23.67-15.66,41.11,41.11,0,0,1,4.78-54,40,40,0,0,1,52.56-2C1234.38,226.69,1241.44,251.6,1225.7,272.34Zm-31.29,7.93A33.77,33.77,0,1,0,1161,246.46,33.56,33.56,0,0,0,1194.41,280.27Z"/><path class="cls-3" d="M1012.58,148.51c-3.19,0-6.37,0-9.56,0-2.29,0-4.07-.8-4-3.44s1.62-3.52,4-3.52h19.12c2.22,0,3.79.8,3.88,3.28s-1.47,3.63-3.83,3.67C1019,148.55,1015.76,148.51,1012.58,148.51Z"/><path class="cls-3" d="M1191,141.56h9.28c2.24,0,3.81.84,3.85,3.31s-1.46,3.57-3.66,3.6q-9.56.14-19.13,0c-2.27,0-3.62-1.25-3.52-3.66s1.47-3.23,3.61-3.25Z"/><path class="cls-3" d="M1027.15,126.11c-6.29-1.44-11.89-2.55-17.36-4.14-1-.29-2.17-2.67-1.93-3.8s2.31-2.82,3.32-2.66a155.85,155.85,0,0,1,17,3.77c1,.28,2,2.68,1.83,3.9S1028,125.3,1027.15,126.11Z"/><path class="cls-3" d="M1010.17,175.29c-.87-.92-2.69-2-2.7-3.08,0-1.37,1.19-3.65,2.32-4a138.15,138.15,0,0,1,16.37-3.63c1.06-.17,3.2,1.41,3.45,2.5s-.85,3.64-1.83,3.93C1022.24,172.66,1016.56,173.81,1010.17,175.29Z"/><path class="cls-3" d="M1176.44,164.54c6.18,1.48,11.65,2.61,17,4.22,1,.29,2,2.7,1.75,3.93-.17,1-2.23,2.68-3.17,2.51a159.23,159.23,0,0,1-16.52-3.93c-.92-.27-2-2.55-1.75-3.68S1175.59,165.42,1176.44,164.54Z"/><path class="cls-3" d="M1176.47,125.8c-.84-.87-2.67-1.92-2.71-3,0-1.36,1.13-3.66,2.25-4a114.94,114.94,0,0,1,15.47-3.59c1.13-.18,3.27,1.42,3.69,2.63.34,1-.94,3.5-2,3.82C1188,123.24,1182.57,124.34,1176.47,125.8Z"/><g class="cls-2"><path d="M527.76,66.81,535.55,75c0-.93.06-1.76.12-2.59.14-2,1.29-3.57,3.25-3.25,1.3.22,3.33,1.65,3.43,2.69a76.84,76.84,0,0,1,0,13.31c-.08,1-2.23,2.36-3.54,2.49-3.54.35-7.15.11-10.73.13-2.27,0-3.83-.93-3.92-3.3s1.34-3.5,3.61-3.65c.67,0,1.34,0,1.88,0l-7.93-7.44C501.12,89.57,474.23,80.93,463,65c-11.81-16.83-9.46-39.86,5.82-53.49a40.85,40.85,0,0,1,54.79.12A40.32,40.32,0,0,1,527.76,66.81ZM530,41.31a33.77,33.77,0,0,0-67.53.22c0,18.36,15.33,33.37,33.9,33.31A33.61,33.61,0,0,0,530,41.31Z"/><path d="M678.12,72.62l-8.18,7.93c1.22,0,2.13,0,3,0,2,.13,3.29,1.43,3,3.17-.21,1.32-1.59,3.38-2.59,3.47a81,81,0,0,1-13,.06c-2.17-.16-3.08-2.15-3.1-4.3q0-4.93,0-9.87c0-2.32.88-4.06,3.48-4.07s3.52,1.63,3.49,4a12.86,12.86,0,0,0,.07,1.29L672,66.55c-7.74-9.7-10.53-21.4-7.69-34.23A38.81,38.81,0,0,1,680,8.71a41.36,41.36,0,0,1,54,5.15,39.92,39.92,0,0,1,1.67,52.57C723.53,81.54,698.67,88.26,678.12,72.62ZM670.24,41.4a33.78,33.78,0,0,0,67.56.29,33.78,33.78,0,0,0-67.56-.29Z"/><path d="M522.09,222.09l7.83-7.73c-.84,0-1.75-.06-2.67-.14-2-.16-3.28-1.46-3-3.2.23-1.32,1.61-3.37,2.62-3.45a80.85,80.85,0,0,1,13,0c2.17.16,3.07,2.16,3.09,4.31q0,4.93,0,9.87c0,2.31-.89,4.06-3.48,4.07s-3.51-1.64-3.48-4a11.55,11.55,0,0,0-.08-1.34l-7.69,7.8c7.67,9.65,10.52,21.24,7.74,34a39,39,0,0,1-15.65,23.67,41.14,41.14,0,0,1-54-4.78,40,40,0,0,1-2-52.56C476.44,213.41,501.34,206.35,522.09,222.09ZM530,253.38a33.78,33.78,0,1,0-33.81,33.42A33.56,33.56,0,0,0,530,253.38Z"/><path d="M672.84,227.71l-7.73-7.84c0,.84-.06,1.76-.14,2.67-.17,2-1.46,3.28-3.2,3-1.32-.22-3.37-1.6-3.46-2.61a79.84,79.84,0,0,1,0-13c.16-2.17,2.16-3.06,4.31-3.08,3.29,0,6.58,0,9.87,0,2.31,0,4.06.89,4.06,3.49s-1.64,3.51-4,3.48c-.55,0-1.11.06-1.33.07l7.8,7.7c9.64-7.67,21.24-10.53,34-7.75a39,39,0,0,1,23.66,15.66,41.11,41.11,0,0,1-4.78,54,39.94,39.94,0,0,1-52.55,2C664.16,273.36,657.1,248.45,672.84,227.71Zm31.29-7.93a33.77,33.77,0,1,0,33.42,33.81A33.57,33.57,0,0,0,704.13,219.78Z"/><path d="M516.58,149.51c-3.19,0-6.37,0-9.56,0-2.29,0-4.07-.8-4-3.44s1.62-3.52,4-3.52h19.12c2.22,0,3.79.8,3.88,3.28s-1.47,3.63-3.83,3.67C523,149.55,519.76,149.51,516.58,149.51Z"/><path d="M695,142.56h9.28c2.24,0,3.81.84,3.85,3.31s-1.46,3.57-3.66,3.6q-9.56.14-19.13,0c-2.27,0-3.62-1.25-3.52-3.66s1.47-3.23,3.61-3.25Z"/><path d="M531.15,127.11c-6.29-1.44-11.89-2.55-17.36-4.14-1-.29-2.17-2.67-1.93-3.8s2.31-2.82,3.32-2.66a155.85,155.85,0,0,1,17,3.77c1,.28,2,2.68,1.83,3.9S532,126.3,531.15,127.11Z"/><path d="M514.17,176.29c-.87-.92-2.69-2-2.7-3.08,0-1.37,1.19-3.65,2.32-4a138.15,138.15,0,0,1,16.37-3.63c1.06-.17,3.2,1.41,3.45,2.5s-.85,3.64-1.83,3.93C526.24,173.66,520.56,174.81,514.17,176.29Z"/><path d="M680.44,165.54c6.18,1.48,11.65,2.61,17,4.22,1,.29,2,2.7,1.75,3.93-.17,1-2.23,2.68-3.17,2.51a159.23,159.23,0,0,1-16.52-3.93c-.92-.27-2-2.55-1.75-3.68S679.59,166.42,680.44,165.54Z"/><path d="M680.47,126.8c-.84-.87-2.67-1.92-2.71-3,0-1.36,1.13-3.66,2.25-4a114.94,114.94,0,0,1,15.47-3.59c1.13-.18,3.27,1.42,3.69,2.63.34,1-.94,3.5-2,3.82C692,124.24,686.57,125.34,680.47,126.8Z"/><path d="M815.63,168.18l33.69-1.07c-1.19,1.19-2.74,2.57-4.09,4.12-4.66,5.3-5.28,11,.06,15.92s10.9,3.65,15.84-1.36c7.8-7.9,16.23-15.28,23.25-23.82,2.58-3.14,4.23-10.93,2.3-13.22a241,241,0,0,0-29.26-29.13c-2.46-2.06-10.06-.76-13.4,1.64-5,3.59-4.16,9.46,0,14.24,1.7,1.94,3.47,3.8,5.41,5.92l-35-.8Z"/></g><path class="cls-3" d="M526.76,65.81,534.55,74c0-.93.06-1.76.12-2.59.14-2,1.29-3.57,3.25-3.25,1.3.22,3.33,1.65,3.43,2.69a76.84,76.84,0,0,1,0,13.31c-.08,1-2.23,2.36-3.54,2.49-3.54.35-7.15.11-10.73.13-2.27,0-3.83-.93-3.92-3.3s1.34-3.5,3.61-3.65c.67,0,1.34,0,1.88,0l-7.93-7.44C500.12,88.57,473.23,79.93,462,64c-11.81-16.83-9.46-39.86,5.82-53.49a40.85,40.85,0,0,1,54.79.12A40.32,40.32,0,0,1,526.76,65.81ZM529,40.31a33.77,33.77,0,0,0-67.53.22c0,18.36,15.33,33.37,33.9,33.31A33.61,33.61,0,0,0,529,40.31Z"/><path class="cls-3" d="M677.12,71.62l-8.18,7.93c1.22,0,2.13,0,3,0,2,.13,3.29,1.43,3,3.17-.21,1.32-1.59,3.38-2.59,3.47a81,81,0,0,1-13,.06c-2.17-.16-3.08-2.15-3.1-4.3q0-4.93,0-9.87c0-2.32.88-4.06,3.48-4.07s3.52,1.63,3.49,4a12.86,12.86,0,0,0,.07,1.29L671,65.55c-7.74-9.7-10.53-21.4-7.69-34.23A38.81,38.81,0,0,1,679,7.71a41.36,41.36,0,0,1,54,5.15,39.92,39.92,0,0,1,1.67,52.57C722.53,80.54,697.67,87.26,677.12,71.62ZM669.24,40.4a33.78,33.78,0,0,0,67.56.29,33.78,33.78,0,0,0-67.56-.29Z"/><path class="cls-3" d="M521.09,221.09l7.83-7.73c-.84,0-1.75-.06-2.67-.14-2-.16-3.28-1.46-3-3.2.23-1.32,1.61-3.37,2.62-3.45a80.85,80.85,0,0,1,13,0c2.17.16,3.07,2.16,3.09,4.31q0,4.93,0,9.87c0,2.31-.89,4.06-3.48,4.07s-3.51-1.64-3.48-4a11.55,11.55,0,0,0-.08-1.34l-7.69,7.8c7.67,9.65,10.52,21.24,7.74,34a39,39,0,0,1-15.65,23.67,41.14,41.14,0,0,1-54-4.78,40,40,0,0,1-2-52.56C475.44,212.41,500.34,205.35,521.09,221.09ZM529,252.38a33.78,33.78,0,1,0-33.81,33.42A33.56,33.56,0,0,0,529,252.38Z"/><path class="cls-3" d="M671.84,226.71l-7.73-7.84c0,.84-.06,1.76-.14,2.67-.17,2-1.46,3.28-3.2,3-1.32-.22-3.37-1.6-3.46-2.61a79.84,79.84,0,0,1,0-13c.16-2.17,2.16-3.06,4.31-3.08,3.29,0,6.58,0,9.87,0,2.31,0,4.06.89,4.06,3.49s-1.64,3.51-4,3.48c-.55,0-1.11.06-1.33.07l7.8,7.7c9.64-7.67,21.24-10.53,34-7.75a39,39,0,0,1,23.66,15.66,41.11,41.11,0,0,1-4.78,54,39.94,39.94,0,0,1-52.55,2C663.16,272.36,656.1,247.45,671.84,226.71Zm31.29-7.93a33.77,33.77,0,1,0,33.42,33.81A33.57,33.57,0,0,0,703.13,218.78Z"/><path class="cls-3" d="M515.58,148.51c-3.19,0-6.37,0-9.56,0-2.29,0-4.07-.8-4-3.44s1.62-3.52,4-3.52h19.12c2.22,0,3.79.8,3.88,3.28s-1.47,3.63-3.83,3.67C522,148.55,518.76,148.51,515.58,148.51Z"/><path class="cls-3" d="M694,141.56h9.28c2.24,0,3.81.84,3.85,3.31s-1.46,3.57-3.66,3.6q-9.56.14-19.13,0c-2.27,0-3.62-1.25-3.52-3.66s1.47-3.23,3.61-3.25Z"/><path class="cls-3" d="M530.15,126.11c-6.29-1.44-11.89-2.55-17.36-4.14-1-.29-2.17-2.67-1.93-3.8s2.31-2.82,3.32-2.66a155.85,155.85,0,0,1,17,3.77c1,.28,2,2.68,1.83,3.9S531,125.3,530.15,126.11Z"/><path class="cls-3" d="M513.17,175.29c-.87-.92-2.69-2-2.7-3.08,0-1.37,1.19-3.65,2.32-4a138.15,138.15,0,0,1,16.37-3.63c1.06-.17,3.2,1.41,3.45,2.5s-.85,3.64-1.83,3.93C525.24,172.66,519.56,173.81,513.17,175.29Z"/><path class="cls-3" d="M679.44,164.54c6.18,1.48,11.65,2.61,17,4.22,1,.29,2,2.7,1.75,3.93-.17,1-2.23,2.68-3.17,2.51a159.23,159.23,0,0,1-16.52-3.93c-.92-.27-2-2.55-1.75-3.68S678.59,165.42,679.44,164.54Z"/><path class="cls-3" d="M679.47,125.8c-.84-.87-2.67-1.92-2.71-3,0-1.36,1.13-3.66,2.25-4a114.94,114.94,0,0,1,15.47-3.59c1.13-.18,3.27,1.42,3.69,2.63.34,1-.94,3.5-2,3.82C691,123.24,685.57,124.34,679.47,125.8Z"/><path class="cls-3" d="M814.63,167.18l33.69-1.07c-1.19,1.19-2.74,2.57-4.09,4.12-4.66,5.3-5.28,11,.06,15.92s10.9,3.65,15.84-1.36c7.8-7.9,16.23-15.28,23.25-23.82,2.58-3.14,4.23-10.93,2.3-13.22a241,241,0,0,0-29.26-29.13c-2.46-2.06-10.06-.76-13.4,1.64-5,3.59-4.16,9.46,0,14.24,1.7,1.94,3.47,3.8,5.41,5.92l-35-.8Z"/><g class="cls-2"><path d="M4.8,147.18l3.71,11.45,3.6-11.45h3.72l3.65,11.45,3.63-11.45h3.72l-5.5,15.17H17.56l-3.63-10.69-3.6,10.69H6.56L1,147.21Z"/><path d="M30.46,147.18l3.72,11.45,3.6-11.45h3.71l3.66,11.45,3.63-11.45h3.71L47,162.35H43.22l-3.63-10.69L36,162.35H32.22l-5.56-15.14Z"/><path d="M56.13,147.18l3.71,11.45,3.6-11.45h3.72l3.65,11.45,3.63-11.45h3.72l-5.5,15.17H68.88l-3.62-10.69-3.6,10.69H57.88l-5.55-15.14Z"/><path d="M82.5,160.53a1.94,1.94,0,1,1-3.88,0,1.94,1.94,0,1,1,3.88,0Z"/><path d="M102.15,154.84c0,4.56-2.81,7.65-7.12,7.65a5.88,5.88,0,0,1-5.16-2.61v8H86.19V147.18h3.68v2.5A5.76,5.76,0,0,1,95,147.07C99.26,147.07,102.15,150.19,102.15,154.84Zm-3.74-.12a4.28,4.28,0,1,0-8.54,0c0,2.72,1.76,4.6,4.28,4.6S98.41,157.42,98.41,154.72Z"/><path d="M120,154.75c0,4.62-3.26,7.74-8,7.74s-8-3.12-8-7.74,3.26-7.68,8-7.68S120,150.16,120,154.75Zm-12.28.06c0,2.72,1.76,4.59,4.25,4.59s4.28-1.87,4.28-4.59-1.75-4.57-4.28-4.57S107.71,152.09,107.71,154.81Z"/><path d="M127,141.31v21h-3.68v-21Z"/><path d="M135.67,142.84a2.07,2.07,0,1,1-2.07-2.18A2.06,2.06,0,0,1,135.67,142.84Zm-.23,4.34v15.17h-3.68V147.18Z"/><path d="M165.41,152.88v9.47H161.7V154a3.14,3.14,0,0,0-3.32-3.46c-2.38.08-3.83,1.9-3.83,4.36v7.49h-3.71V154a3.12,3.12,0,0,0-3.29-3.46c-2.41.08-3.85,1.9-3.85,4.36v7.49H140V147.18h3.69V150a5.59,5.59,0,0,1,5.33-3,5,5,0,0,1,5.21,3.63,5.63,5.63,0,0,1,5.64-3.63C163.31,147,165.41,149.28,165.41,152.88Z"/><path d="M173.44,142.84a2.07,2.07,0,1,1-2.07-2.18A2.06,2.06,0,0,1,173.44,142.84Zm-.22,4.34v15.17h-3.69V147.18Z"/><path d="M193.89,154.84c0,4.56-2.81,7.65-7.12,7.65a5.86,5.86,0,0,1-5.16-2.61v8h-3.69V147.18h3.69v2.5a5.74,5.74,0,0,1,5.1-2.61C191,147.07,193.89,150.19,193.89,154.84Zm-3.75-.12a4.27,4.27,0,1,0-8.53,0c0,2.72,1.76,4.6,4.28,4.6S190.14,157.42,190.14,154.72Z"/><path d="M205.94,147v3.57c-3.2-.2-5.16,1.67-5.16,4.42v7.32h-3.69V147.18h3.69v2.92A5.53,5.53,0,0,1,205.94,147Z"/><path d="M212.43,142.84a2.07,2.07,0,1,1-4.13,0,2.07,2.07,0,1,1,4.13,0Zm-.22,4.34v15.17h-3.69V147.18Z"/><path d="M231.4,141.31v21h-3.68v-2.44a5.78,5.78,0,0,1-5.11,2.61c-4.33,0-7.23-3.18-7.23-7.8s2.9-7.68,7.15-7.68a5.83,5.83,0,0,1,5.19,2.64v-8.37Zm-3.68,13.5c0-2.72-1.76-4.62-4.31-4.62s-4.28,1.92-4.31,4.62,1.76,4.62,4.31,4.62S227.72,157.53,227.72,154.81Z"/><path d="M249.72,156.05h-11.2a4.24,4.24,0,0,0,4.34,3.46,5.6,5.6,0,0,0,4.08-1.7l2,2.07a8.41,8.41,0,0,1-6.38,2.61c-4.71,0-7.8-3.12-7.8-7.68a7.36,7.36,0,0,1,7.71-7.74C247.79,147.07,250.09,150.55,249.72,156.05Zm-3.34-2.46a3.61,3.61,0,0,0-3.89-3.66,4,4,0,0,0-4.05,3.66Z"/><path d="M255.77,160.53a1.95,1.95,0,1,1-3.89,0,1.95,1.95,0,1,1,3.89,0Z"/><path d="M263.22,142.84a2.07,2.07,0,1,1-2.07-2.18A2.06,2.06,0,0,1,263.22,142.84Zm-.22,4.34v15.17h-3.69V147.18Z"/><path d="M276.44,161.41a7.33,7.33,0,0,1-3.8,1.11c-2.47,0-4.45-1.42-4.45-4.54V150.5h-2.13l0-2.7h2.16v-4.16h3.65v4.16h4.34v2.7h-4.34v6.83c0,1.45.6,1.93,1.59,1.93a5.19,5.19,0,0,0,2.16-.63Z"/></g><path class="cls-3" d="M3.8,146.18l3.71,11.45,3.6-11.45h3.72l3.65,11.45,3.63-11.45h3.72l-5.5,15.17H16.56l-3.63-10.69-3.6,10.69H5.56L0,146.21Z"/><path class="cls-3" d="M29.46,146.18l3.72,11.45,3.6-11.45h3.71l3.66,11.45,3.63-11.45h3.71L46,161.35H42.22l-3.63-10.69L35,161.35H31.22l-5.56-15.14Z"/><path class="cls-3" d="M55.13,146.18l3.71,11.45,3.6-11.45h3.72l3.65,11.45,3.63-11.45h3.72l-5.5,15.17H67.88l-3.62-10.69-3.6,10.69H56.88l-5.55-15.14Z"/><path class="cls-3" d="M81.5,159.53a1.94,1.94,0,1,1-3.88,0,1.94,1.94,0,1,1,3.88,0Z"/><path class="cls-3" d="M101.15,153.84c0,4.56-2.81,7.65-7.12,7.65a5.88,5.88,0,0,1-5.16-2.61v8H85.19V146.18h3.68v2.5A5.76,5.76,0,0,1,94,146.07C98.26,146.07,101.15,149.19,101.15,153.84Zm-3.74-.12a4.28,4.28,0,1,0-8.54,0c0,2.72,1.76,4.6,4.28,4.6S97.41,156.42,97.41,153.72Z"/><path class="cls-3" d="M119,153.75c0,4.62-3.26,7.74-8,7.74s-8-3.12-8-7.74,3.26-7.68,8-7.68S119,149.16,119,153.75Zm-12.28.06c0,2.72,1.76,4.59,4.25,4.59s4.28-1.87,4.28-4.59-1.75-4.57-4.28-4.57S106.71,151.09,106.71,153.81Z"/><path class="cls-3" d="M126,140.31v21h-3.68v-21Z"/><path class="cls-3" d="M134.67,141.84a2.07,2.07,0,1,1-2.07-2.18A2.06,2.06,0,0,1,134.67,141.84Zm-.23,4.34v15.17h-3.68V146.18Z"/><path class="cls-3" d="M164.41,151.88v9.47H160.7V153a3.14,3.14,0,0,0-3.32-3.46c-2.38.08-3.83,1.9-3.83,4.36v7.49h-3.71V153a3.12,3.12,0,0,0-3.29-3.46c-2.41.08-3.85,1.9-3.85,4.36v7.49H139V146.18h3.69V149a5.59,5.59,0,0,1,5.33-3,5,5,0,0,1,5.21,3.63,5.63,5.63,0,0,1,5.64-3.63C162.31,146,164.41,148.28,164.41,151.88Z"/><path class="cls-3" d="M172.44,141.84a2.07,2.07,0,1,1-2.07-2.18A2.06,2.06,0,0,1,172.44,141.84Zm-.22,4.34v15.17h-3.69V146.18Z"/><path class="cls-3" d="M192.89,153.84c0,4.56-2.81,7.65-7.12,7.65a5.86,5.86,0,0,1-5.16-2.61v8h-3.69V146.18h3.69v2.5a5.74,5.74,0,0,1,5.1-2.61C190,146.07,192.89,149.19,192.89,153.84Zm-3.75-.12a4.27,4.27,0,1,0-8.53,0c0,2.72,1.76,4.6,4.28,4.6S189.14,156.42,189.14,153.72Z"/><path class="cls-3" d="M204.94,146v3.57c-3.2-.2-5.16,1.67-5.16,4.42v7.32h-3.69V146.18h3.69v2.92A5.53,5.53,0,0,1,204.94,146Z"/><path class="cls-3" d="M211.43,141.84a2.07,2.07,0,1,1-4.13,0,2.07,2.07,0,1,1,4.13,0Zm-.22,4.34v15.17h-3.69V146.18Z"/><path class="cls-3" d="M230.4,140.31v21h-3.68v-2.44a5.78,5.78,0,0,1-5.11,2.61c-4.33,0-7.23-3.18-7.23-7.8s2.9-7.68,7.15-7.68a5.83,5.83,0,0,1,5.19,2.64v-8.37Zm-3.68,13.5c0-2.72-1.76-4.62-4.31-4.62s-4.28,1.92-4.31,4.62,1.76,4.62,4.31,4.62S226.72,156.53,226.72,153.81Z"/><path class="cls-3" d="M248.72,155.05h-11.2a4.24,4.24,0,0,0,4.34,3.46,5.6,5.6,0,0,0,4.08-1.7l2,2.07a8.41,8.41,0,0,1-6.38,2.61c-4.71,0-7.8-3.12-7.8-7.68a7.36,7.36,0,0,1,7.71-7.74C246.79,146.07,249.09,149.55,248.72,155.05Zm-3.34-2.46a3.61,3.61,0,0,0-3.89-3.66,4,4,0,0,0-4.05,3.66Z"/><path class="cls-3" d="M254.77,159.53a1.95,1.95,0,1,1-3.89,0,1.95,1.95,0,1,1,3.89,0Z"/><path class="cls-3" d="M262.22,141.84a2.07,2.07,0,1,1-2.07-2.18A2.06,2.06,0,0,1,262.22,141.84Zm-.22,4.34v15.17h-3.69V146.18Z"/><path class="cls-3" d="M275.44,160.41a7.33,7.33,0,0,1-3.8,1.11c-2.47,0-4.45-1.42-4.45-4.54V149.5h-2.13l0-2.7h2.16v-4.16h3.65v4.16h4.34v2.7h-4.34v6.83c0,1.45.6,1.93,1.59,1.93a5.19,5.19,0,0,0,2.16-.63Z"/><g class="cls-2"><path d="M1319.63,168.18l33.69-1.07c-1.19,1.19-2.74,2.57-4.09,4.12-4.66,5.3-5.28,11,.06,15.92s10.9,3.65,15.84-1.36c7.8-7.9,16.23-15.28,23.25-23.82,2.58-3.14,4.23-10.93,2.3-13.22a241,241,0,0,0-29.26-29.13c-2.46-2.06-10.06-.76-13.4,1.64-5,3.59-4.16,9.46,0,14.24,1.7,1.94,3.47,3.8,5.41,5.92l-35-.8Z"/></g><path class="cls-3" d="M1318.63,167.18l33.69-1.07c-1.19,1.19-2.74,2.57-4.09,4.12-4.66,5.3-5.28,11,.06,15.92s10.9,3.65,15.84-1.36c7.8-7.9,16.23-15.28,23.25-23.82,2.58-3.14,4.23-10.93,2.3-13.22a241,241,0,0,0-29.26-29.13c-2.46-2.06-10.06-.76-13.4,1.64-5,3.59-4.16,9.46,0,14.24,1.7,1.94,3.47,3.8,5.41,5.92l-35-.8Z"/><g class="cls-2"><path d="M320.63,168.18l33.69-1.07c-1.19,1.19-2.74,2.57-4.09,4.12-4.66,5.3-5.28,11,.06,15.92s10.9,3.65,15.84-1.36c7.8-7.9,16.23-15.28,23.25-23.82,2.58-3.14,4.23-10.93,2.3-13.22a241,241,0,0,0-29.26-29.13c-2.46-2.06-10.06-.76-13.4,1.64-5,3.59-4.16,9.46,0,14.24,1.7,1.94,3.47,3.8,5.41,5.92l-35-.8Z"/></g><path class="cls-3" d="M319.63,167.18l33.69-1.07c-1.19,1.19-2.74,2.57-4.09,4.12-4.66,5.3-5.28,11,.06,15.92s10.9,3.65,15.84-1.36c7.8-7.9,16.23-15.28,23.25-23.82,2.58-3.14,4.23-10.93,2.3-13.22a241,241,0,0,0-29.26-29.13c-2.46-2.06-10.06-.76-13.4,1.64-5,3.59-4.16,9.46,0,14.24,1.7,1.94,3.47,3.8,5.41,5.92l-35-.8Z"/><g class="cls-2"><path d="M609.34,125.84a14.53,14.53,0,0,1,6.78,10.81,11.63,11.63,0,0,0,5,1.12,11.76,11.76,0,1,0-11.74-11.93Zm16.73,12.73h-9.89a14.52,14.52,0,0,1-4.47,10.09,17.88,17.88,0,0,1,12.77,17.11v3.75c9.77-.35,15.4-3.12,15.77-3.31l.78-.4h.09v-12.2A15.06,15.06,0,0,0,626.07,138.57Zm-45.05-.8a11.61,11.61,0,0,0,6.25-1.82,14.54,14.54,0,0,1,5.47-9.27c0-.22,0-.44,0-.66A11.75,11.75,0,1,0,581,137.77Zm10.56,10.89a14.51,14.51,0,0,1-4.47-10c-.37,0-.73-.05-1.1-.05H576a15.06,15.06,0,0,0-15,15v12.2l0,.19.84.26a70.32,70.32,0,0,0,16.94,3.19v-3.68A17.89,17.89,0,0,1,591.58,148.66Z"/></g><path class="cls-3" d="M608.34,124.84a14.53,14.53,0,0,1,6.78,10.81,11.63,11.63,0,0,0,5,1.12,11.76,11.76,0,1,0-11.74-11.93Zm16.73,12.73h-9.89a14.52,14.52,0,0,1-4.47,10.09,17.88,17.88,0,0,1,12.77,17.11v3.75c9.77-.35,15.4-3.12,15.77-3.31l.78-.4h.09v-12.2A15.06,15.06,0,0,0,625.07,137.57Zm-45.05-.8a11.61,11.61,0,0,0,6.25-1.82,14.54,14.54,0,0,1,5.47-9.27c0-.22,0-.44,0-.66A11.75,11.75,0,1,0,580,136.77Zm10.56,10.89a14.51,14.51,0,0,1-4.47-10c-.37,0-.73-.05-1.1-.05H575a15.06,15.06,0,0,0-15,15v12.2l0,.19.84.26a70.32,70.32,0,0,0,16.94,3.19v-3.68A17.89,17.89,0,0,1,590.58,147.66Z"/><g class="cls-2"><path d="M601.64,149.9a11.75,11.75,0,1,0-11.75-11.75A11.75,11.75,0,0,0,601.64,149.9Z"/></g><path class="cls-3" d="M600.64,148.9a11.75,11.75,0,1,0-11.75-11.75A11.75,11.75,0,0,0,600.64,148.9Z"/><g class="cls-2"><path d="M606.63,150.7h-10a15.07,15.07,0,0,0-15,15.05v12.19l0,.19.84.27a68.65,68.65,0,0,0,20.46,3.3c11.06,0,17.47-3.16,17.86-3.36l.79-.4h.08V165.75A15.05,15.05,0,0,0,606.63,150.7Z"/></g><path class="cls-3" d="M605.63,149.7h-10a15.07,15.07,0,0,0-15,15.05v12.19l0,.19.84.27a68.65,68.65,0,0,0,20.46,3.3c11.06,0,17.47-3.16,17.86-3.36l.79-.4h.08V164.75A15.05,15.05,0,0,0,605.63,149.7Z"/><g class="cls-2"><path d="M1108.34,125.84a14.53,14.53,0,0,1,6.78,10.81,11.63,11.63,0,0,0,5,1.12,11.76,11.76,0,1,0-11.74-11.93Zm16.73,12.73h-9.89a14.52,14.52,0,0,1-4.47,10.09,17.88,17.88,0,0,1,12.77,17.11v3.75c9.77-.35,15.4-3.12,15.77-3.31l.78-.4h.09v-12.2A15.06,15.06,0,0,0,1125.07,138.57Zm-45-.8a11.61,11.61,0,0,0,6.25-1.82,14.54,14.54,0,0,1,5.47-9.27c0-.22,0-.44,0-.66A11.75,11.75,0,1,0,1080,137.77Zm10.56,10.89a14.51,14.51,0,0,1-4.47-10c-.37,0-.73-.05-1.1-.05h-10a15.06,15.06,0,0,0-15,15v12.2l0,.19.84.26a70.32,70.32,0,0,0,16.94,3.19v-3.68A17.89,17.89,0,0,1,1090.58,148.66Z"/></g><path class="cls-3" d="M1107.34,124.84a14.53,14.53,0,0,1,6.78,10.81,11.63,11.63,0,0,0,5,1.12,11.76,11.76,0,1,0-11.74-11.93Zm16.73,12.73h-9.89a14.52,14.52,0,0,1-4.47,10.09,17.88,17.88,0,0,1,12.77,17.11v3.75c9.77-.35,15.4-3.12,15.77-3.31l.78-.4h.09v-12.2A15.06,15.06,0,0,0,1124.07,137.57Zm-45-.8a11.61,11.61,0,0,0,6.25-1.82,14.54,14.54,0,0,1,5.47-9.27c0-.22,0-.44,0-.66A11.75,11.75,0,1,0,1079,136.77Zm10.56,10.89a14.51,14.51,0,0,1-4.47-10c-.37,0-.73-.05-1.1-.05h-10a15.06,15.06,0,0,0-15,15v12.2l0,.19.84.26a70.32,70.32,0,0,0,16.94,3.19v-3.68A17.89,17.89,0,0,1,1089.58,147.66Z"/><g class="cls-2"><path d="M1100.64,149.9a11.75,11.75,0,1,0-11.75-11.75A11.75,11.75,0,0,0,1100.64,149.9Z"/></g><path class="cls-3" d="M1099.64,148.9a11.75,11.75,0,1,0-11.75-11.75A11.75,11.75,0,0,0,1099.64,148.9Z"/><g class="cls-2"><path d="M1105.63,150.7h-10a15.07,15.07,0,0,0-15.05,15.05v12.19l0,.19.84.27a68.65,68.65,0,0,0,20.46,3.3c11.06,0,17.47-3.16,17.86-3.36l.79-.4h.08V165.75A15.05,15.05,0,0,0,1105.63,150.7Z"/></g><path class="cls-3" d="M1104.63,149.7h-10a15.07,15.07,0,0,0-15.05,15.05v12.19l0,.19.84.27a68.65,68.65,0,0,0,20.46,3.3c11.06,0,17.47-3.16,17.86-3.36l.79-.4h.08V164.75A15.05,15.05,0,0,0,1104.63,149.7Z"/><g class="cls-2"><path d="M1533.76,155.28h.3a14.33,14.33,0,1,0-.3,0Z"/><path d="M1502.58,221.49a2,2,0,0,0,.12.34A3.24,3.24,0,0,1,1502.58,221.49Z"/><path d="M1502.19,215.13v-.93c0-.14,0-.29,0-.43v0a22.06,22.06,0,0,0-.24,2.5l.26-.16A6,6,0,0,1,1502.19,215.13Z"/><path d="M1502.42,220.87l0,0c.06.23.12.42.18.59A5.61,5.61,0,0,1,1502.42,220.87Z"/><polygon points="1512.48 216.31 1512.48 216.31 1512.48 216.31 1512.48 216.31"/><path d="M1502.88,222.25a3.79,3.79,0,0,1-.18-.42c.1.27.17.42.17.42Z"/><path d="M1502.88,222.25a4.92,4.92,0,0,0,8.87,0h0l.28-1h0l.45-5h0c0-.16,0-.28,0-.38h0a57.66,57.66,0,0,1,7.16-23.17c.34-.63.7-1.25,1.07-1.86q.54,9.36.87,18.73l.21,6.06a23.88,23.88,0,0,0,.71,6c.22.75.46,2,.6,2.75s.29,1.65.41,2.47c.32,1.93.55,3.87.78,5.81.57,4.87.85,9.77,1,14.66q.21,5.41,0,10.82c-.12,4-.26,8.1-.6,12.14-.17,2-.29,3.95-.54,5.92-.22,1.74-.4,3.48-.6,5.22l-.06.47a6.33,6.33,0,0,0,2.62,6,6.12,6.12,0,0,0,9.17-3.06,6.44,6.44,0,0,0,.2-.72c.65-3.07,1.33-6.13,1.89-9.21.74-4.07,1.45-8.15,2-12.26s1-8.4,1.31-12.62.5-8.4.57-12.61v-1.25a141.79,141.79,0,0,1,1.28,25.3c-.15,3.77-.49,7.5-.92,11.24-.31,2.65-.78,5.27-1.25,7.9a6.09,6.09,0,0,0,11.89,2.62l0-.05c.77-3,1.52-5.95,2.14-9,.84-4,1.47-8.1,2-12.2a151.33,151.33,0,0,0,.92-25.18c-.18-4.16-.51-8.32-1-12.45q-.37-3-.85-6l-.09-.52a24.26,24.26,0,0,1-.25-2.54c0-1-.07-2.09-.11-3.14q-.33-10-.86-20.09s0,0,0,0a55.18,55.18,0,0,0,10.09,4.72,96.65,96.65,0,0,0,9.87,3,5.49,5.49,0,0,0,3.4-.09,4.91,4.91,0,0,0,2.72-6.61,5.24,5.24,0,0,0-2.89-2.7c-2.71-1.11-5.39-2.28-8-3.63a39.11,39.11,0,0,1-8.58-5.63c-.16-.14-.32-.28-.47-.43s.16.13.08.06c-1.54-1.49-3-3-4.43-4.64a38,38,0,0,1-3.86-5.75c-3.17-5.66-6.94-10.23-12.94-11.3a16.61,16.61,0,0,0-14,4,44.88,44.88,0,0,0-3.35,3.41,78.48,78.48,0,0,0-13.15,20,69.73,69.73,0,0,0-4.25,11.71,72.84,72.84,0,0,0-2.1,12.18c-.11,1.17-.16,2.35-.19,3.52,0,.14,0,.29,0,.43v.93a6,6,0,0,0,0,1l-.26.16a16.2,16.2,0,0,0,.44,4.6l0,0a5.61,5.61,0,0,0,.16.62,3.24,3.24,0,0,0,.12.34,3.79,3.79,0,0,0,.18.42"/></g><path class="cls-3" d="M1532.76,154.28h.3a14.33,14.33,0,1,0-.3,0Z"/><path class="cls-3" d="M1501.58,220.49a2,2,0,0,0,.12.34A3.24,3.24,0,0,1,1501.58,220.49Z"/><path class="cls-3" d="M1501.19,214.13v-.93c0-.14,0-.29,0-.43v0a22.06,22.06,0,0,0-.24,2.5l.26-.16A6,6,0,0,1,1501.19,214.13Z"/><path class="cls-3" d="M1501.42,219.87l0,0c.06.23.12.42.18.59A5.61,5.61,0,0,1,1501.42,219.87Z"/><polygon class="cls-3" points="1511.48 215.31 1511.48 215.31 1511.48 215.31 1511.48 215.31"/><path class="cls-3" d="M1501.88,221.25a3.79,3.79,0,0,1-.18-.42c.1.27.17.42.17.42Z"/><path class="cls-3" d="M1501.88,221.25a4.92,4.92,0,0,0,8.87,0h0l.28-1h0l.45-5h0c0-.16,0-.28,0-.38h0a57.66,57.66,0,0,1,7.16-23.17c.34-.63.7-1.25,1.07-1.86q.54,9.36.87,18.73l.21,6.06a23.88,23.88,0,0,0,.71,6c.22.75.46,2,.6,2.75s.29,1.65.41,2.47c.32,1.93.55,3.87.78,5.81.57,4.87.85,9.77,1,14.66q.21,5.41,0,10.82c-.12,4-.26,8.1-.6,12.14-.17,2-.29,3.95-.54,5.92-.22,1.74-.4,3.48-.6,5.22l-.06.47a6.33,6.33,0,0,0,2.62,6,6.12,6.12,0,0,0,9.17-3.06,6.44,6.44,0,0,0,.2-.72c.65-3.07,1.33-6.13,1.89-9.21.74-4.07,1.45-8.15,2-12.26s1-8.4,1.31-12.62.5-8.4.57-12.61v-1.25a141.79,141.79,0,0,1,1.28,25.3c-.15,3.77-.49,7.5-.92,11.24-.31,2.65-.78,5.27-1.25,7.9a6.09,6.09,0,0,0,11.89,2.62l0-.05c.77-3,1.52-5.95,2.14-9,.84-4,1.47-8.1,2-12.2a151.33,151.33,0,0,0,.92-25.18c-.18-4.16-.51-8.32-1-12.45q-.37-3-.85-6l-.09-.52a24.26,24.26,0,0,1-.25-2.54c0-1-.07-2.09-.11-3.14q-.33-10-.86-20.09s0,0,0,0a55.18,55.18,0,0,0,10.09,4.72,96.65,96.65,0,0,0,9.87,3,5.49,5.49,0,0,0,3.4-.09,4.91,4.91,0,0,0,2.72-6.61,5.24,5.24,0,0,0-2.89-2.7c-2.71-1.11-5.39-2.28-8-3.63a39.11,39.11,0,0,1-8.58-5.63c-.16-.14-.32-.28-.47-.43s.16.13.08.06c-1.54-1.49-3-3-4.43-4.64a38,38,0,0,1-3.86-5.75c-3.17-5.66-6.94-10.23-12.94-11.3a16.61,16.61,0,0,0-14,4,44.88,44.88,0,0,0-3.35,3.41,78.48,78.48,0,0,0-13.15,20,69.73,69.73,0,0,0-4.25,11.71,72.84,72.84,0,0,0-2.1,12.18c-.11,1.17-.16,2.35-.19,3.52,0,.14,0,.29,0,.43v.93a6,6,0,0,0,0,1l-.26.16a16.2,16.2,0,0,0,.44,4.6l0,0a5.61,5.61,0,0,0,.16.62,3.24,3.24,0,0,0,.12.34,3.79,3.79,0,0,0,.18.42"/><g class="cls-2"><path d="M1466.47,26.23c0,4.22-3.13,6.83-8.17,6.83H1454V38.6h-3.57V19.4h7.91C1463.34,19.4,1466.47,22,1466.47,26.23Zm-3.59,0c0-2.41-1.62-3.81-4.75-3.81H1454V30h4.17C1461.26,30,1462.88,28.64,1462.88,26.23Z"/></g><path class="cls-3" d="M1465.47,25.23c0,4.22-3.13,6.83-8.17,6.83H1453V37.6h-3.57V18.4h7.91C1462.34,18.4,1465.47,21,1465.47,25.23Zm-3.59,0c0-2.41-1.62-3.81-4.75-3.81H1453V29h4.17C1460.26,29,1461.88,27.64,1461.88,25.23Z"/><g class="cls-2"><path d="M1484.44,35.61v3H1470V19.4h14v3H1473.6v5h9.27v2.94h-9.27v5.29Z"/></g><path class="cls-3" d="M1483.44,34.61v3H1469V18.4h14v3H1472.6v5h9.27v2.94h-9.27v5.29Z"/><g class="cls-2"><path d="M1501,38.6,1497.05,33a6,6,0,0,1-.74,0H1492V38.6h-3.57V19.4h7.9c5,0,8.18,2.58,8.18,6.83a6.13,6.13,0,0,1-4.09,6.06l4.42,6.31Zm-4.83-16.18H1492v7.65h4.17c3.13,0,4.74-1.43,4.74-3.84S1499.28,22.42,1496.15,22.42Z"/></g><path class="cls-3" d="M1500,37.6,1496.05,32a6,6,0,0,1-.74,0H1491V37.6h-3.57V18.4h7.9c5,0,8.18,2.58,8.18,6.83a6.13,6.13,0,0,1-4.09,6.06l4.42,6.31Zm-4.83-16.18H1491v7.65h4.17c3.13,0,4.74-1.43,4.74-3.84S1498.28,21.42,1495.15,21.42Z"/><g class="cls-2"><path d="M1530.44,35.61v3H1516V19.4h14v3H1519.6v5h9.27v2.94h-9.27v5.29Z"/></g><path class="cls-3" d="M1529.44,34.61v3H1515V18.4h14v3H1518.6v5h9.27v2.94h-9.27v5.29Z"/><g class="cls-2"><path d="M1532.79,36.57,1534,33.8a10.56,10.56,0,0,0,6.33,2.11c3,0,4.26-1.07,4.26-2.49,0-4.14-11.42-1.43-11.42-8.56,0-3.1,2.47-5.74,7.74-5.74a12.09,12.09,0,0,1,6.39,1.71l-1.12,2.77a10.63,10.63,0,0,0-5.3-1.51c-3,0-4.17,1.15-4.17,2.6,0,4.09,11.39,1.43,11.39,8.48,0,3.07-2.5,5.71-7.77,5.71C1537.37,38.88,1534.38,38,1532.79,36.57Z"/></g><path class="cls-3" d="M1531.79,35.57,1533,32.8a10.56,10.56,0,0,0,6.33,2.11c3,0,4.26-1.07,4.26-2.49,0-4.14-11.42-1.43-11.42-8.56,0-3.1,2.47-5.74,7.74-5.74a12.09,12.09,0,0,1,6.39,1.71l-1.12,2.77a10.63,10.63,0,0,0-5.3-1.51c-3,0-4.17,1.15-4.17,2.6,0,4.09,11.39,1.43,11.39,8.48,0,3.07-2.5,5.71-7.77,5.71C1536.37,37.88,1533.38,37,1531.79,35.57Z"/><g class="cls-2"><path d="M1550,36.57l1.24-2.77a10.62,10.62,0,0,0,6.34,2.11c3,0,4.25-1.07,4.25-2.49,0-4.14-11.41-1.43-11.41-8.56,0-3.1,2.47-5.74,7.73-5.74a12.15,12.15,0,0,1,6.4,1.71l-1.13,2.77a10.62,10.62,0,0,0-5.29-1.51c-3,0-4.17,1.15-4.17,2.6,0,4.09,11.38,1.43,11.38,8.48,0,3.07-2.5,5.71-7.76,5.71C1554.63,38.88,1551.64,38,1550,36.57Z"/></g><path class="cls-3" d="M1549,35.57l1.24-2.77a10.62,10.62,0,0,0,6.34,2.11c3,0,4.25-1.07,4.25-2.49,0-4.14-11.41-1.43-11.41-8.56,0-3.1,2.47-5.74,7.73-5.74a12.15,12.15,0,0,1,6.4,1.71l-1.13,2.77a10.62,10.62,0,0,0-5.29-1.51c-3,0-4.17,1.15-4.17,2.6,0,4.09,11.38,1.43,11.38,8.48,0,3.07-2.5,5.71-7.76,5.71C1553.63,37.88,1550.64,37,1549,35.57Z"/><g class="cls-2"><path d="M1583.32,35.61v3h-14.4V19.4h14v3h-10.46v5h9.28v2.94h-9.28v5.29Z"/></g><path class="cls-3" d="M1582.32,34.61v3h-14.4V18.4h14v3h-10.46v5h9.28v2.94h-9.28v5.29Z"/><g class="cls-2"><path d="M1599.86,38.6,1595.94,33a6.19,6.19,0,0,1-.74,0h-4.34V38.6h-3.57V19.4h7.91c5,0,8.17,2.58,8.17,6.83a6.13,6.13,0,0,1-4.09,6.06l4.42,6.31ZM1595,22.42h-4.17v7.65H1595c3.13,0,4.75-1.43,4.75-3.84S1598.16,22.42,1595,22.42Z"/></g><path class="cls-3" d="M1598.86,37.6,1594.94,32a6.19,6.19,0,0,1-.74,0h-4.34V37.6h-3.57V18.4h7.91c5,0,8.17,2.58,8.17,6.83a6.13,6.13,0,0,1-4.09,6.06l4.42,6.31ZM1594,21.42h-4.17v7.65H1594c3.13,0,4.75-1.43,4.75-3.84S1597.16,21.42,1594,21.42Z"/><g class="cls-2"><path d="M1621.75,35.61v3h-14.4V19.4h14v3h-10.46v5h9.28v2.94h-9.28v5.29Z"/></g><path class="cls-3" d="M1620.75,34.61v3h-14.4V18.4h14v3h-10.46v5h9.28v2.94h-9.28v5.29Z"/><g class="cls-2"><path d="M1450,50.06h5.29V78.55H1450Z"/></g><path class="cls-3" d="M1449,49.06h5.29V77.55H1449Z"/><g class="cls-2"><path d="M1488.33,50.06V78.55H1484l-15.71-19.29V78.55H1463V50.06h4.36l15.71,19.29V50.06Z"/></g><path class="cls-3" d="M1487.33,49.06V77.55H1483l-15.71-19.29V77.55H1462V49.06h4.36l15.71,19.29V49.06Z"/><g class="cls-2"><path d="M1493.57,75.53l1.83-4.11a15.8,15.8,0,0,0,9.4,3.14c4.44,0,6.31-1.59,6.31-3.71,0-6.14-16.93-2.11-16.93-12.69,0-4.6,3.66-8.51,11.48-8.51a18.06,18.06,0,0,1,9.48,2.52l-1.67,4.11a15.86,15.86,0,0,0-7.85-2.23c-4.4,0-6.19,1.7-6.19,3.86,0,6.07,16.89,2.12,16.89,12.58,0,4.56-3.7,8.46-11.52,8.46C1500.37,79,1495.93,77.57,1493.57,75.53Z"/></g><path class="cls-3" d="M1492.57,74.53l1.83-4.11a15.8,15.8,0,0,0,9.4,3.14c4.44,0,6.31-1.59,6.31-3.71,0-6.14-16.93-2.11-16.93-12.69,0-4.6,3.66-8.51,11.48-8.51a18.06,18.06,0,0,1,9.48,2.52l-1.67,4.11a15.86,15.86,0,0,0-7.85-2.23c-4.4,0-6.19,1.7-6.19,3.86,0,6.07,16.89,2.12,16.89,12.58,0,4.56-3.7,8.46-11.52,8.46C1499.37,78,1494.93,76.57,1492.57,74.53Z"/><g class="cls-2"><path d="M1521.57,50.06h5.29V78.55h-5.29Z"/></g><path class="cls-3" d="M1520.57,49.06h5.29V77.55h-5.29Z"/><g class="cls-2"><path d="M1555.91,74.11v4.44h-21.36V50.06h20.79v4.43h-15.5V61.9h13.75v4.35h-13.75v7.86Z"/></g><path class="cls-3" d="M1554.91,73.11v4.44h-21.36V49.06h20.79v4.43h-15.5V60.9h13.75v4.35h-13.75v7.86Z"/><g class="cls-2"><path d="M1588,78.55l0-18.89-9.36,15.63h-2.36l-9.36-15.38V78.55h-5V50.06h4.35l11.32,18.88,11.11-18.88h4.35l0,28.49Z"/></g><path class="cls-3" d="M1587,77.55l0-18.89-9.36,15.63h-2.36l-9.36-15.38V77.55h-5V49.06h4.35l11.32,18.88,11.11-18.88h4.35l0,28.49Z"/><g class="cls-2"><path d="M1622,74.11v4.44h-21.36V50.06h20.79v4.43H1606V61.9h13.75v4.35H1606v7.86Z"/></g><path class="cls-3" d="M1621,73.11v4.44h-21.36V49.06h20.79v4.43H1605V60.9h13.75v4.35H1605v7.86Z"/><g class="cls-2"><path d="M1463.29,102.82h-8.39l-1.65,3.88H1450l7.55-16.77h3.07l7.57,16.77H1465Zm-1-2.44L1459.09,93l-3.14,7.34Z"/></g><path class="cls-3" d="M1462.29,101.82h-8.39l-1.65,3.88H1449l7.55-16.77h3.07l7.57,16.77H1464Zm-1-2.44L1458.09,92,1455,99.38Z"/><g class="cls-2"><path d="M1470.35,89.93h3.12v14.14h8.77v2.63h-11.89Z"/></g><path class="cls-3" d="M1469.35,88.93h3.12v14.14h8.77v2.63h-11.89Z"/><g class="cls-2"><path d="M1484.71,89.93h3.11v14.14h8.77v2.63h-11.88Z"/></g><path class="cls-3" d="M1483.71,88.93h3.11v14.14h8.77v2.63h-11.88Z"/><g class="cls-2"><path d="M1510.06,102.82h-8.39L1500,106.7h-3.21l7.55-16.77h3.06L1515,106.7h-3.26Zm-1-2.44L1505.87,93l-3.14,7.34Z"/></g><path class="cls-3" d="M1509.06,101.82h-8.39L1499,105.7h-3.21l7.55-16.77h3.06L1514,105.7h-3.26Zm-1-2.44L1504.87,92l-3.14,7.34Z"/><g class="cls-2"><path d="M1537.78,95.9c0,3.69-2.73,6-7.14,6h-3.78v4.84h-3.12V89.93h6.9C1535.05,89.93,1537.78,92.18,1537.78,95.9Zm-3.14,0c0-2.11-1.41-3.34-4.14-3.34h-3.64v6.67h3.64C1533.23,99.23,1534.64,98,1534.64,95.9Z"/></g><path class="cls-3" d="M1536.78,94.9c0,3.69-2.73,6-7.14,6h-3.78v4.84h-3.12V88.93h6.9C1534.05,88.93,1536.78,91.18,1536.78,94.9Zm-3.14,0c0-2.11-1.41-3.34-4.14-3.34h-3.64v6.67h3.64C1532.23,98.23,1533.64,97,1533.64,94.9Z"/><g class="cls-2"><path d="M1550.94,102.82h-8.39l-1.65,3.88h-3.21l7.54-16.77h3.07l7.58,16.77h-3.26Zm-1-2.44L1546.74,93l-3.13,7.34Z"/></g><path class="cls-3" d="M1549.94,101.82h-8.39l-1.65,3.88h-3.21l7.54-16.77h3.07l7.58,16.77h-3.26Zm-1-2.44L1545.74,92l-3.13,7.34Z"/><g class="cls-2"><path d="M1569,106.7l-3.43-4.91a4.57,4.57,0,0,1-.64,0h-3.79v4.88H1558V89.93h6.91c4.41,0,7.14,2.25,7.14,6a5.34,5.34,0,0,1-3.57,5.29l3.86,5.51Zm-4.22-14.14h-3.64v6.69h3.64c2.74,0,4.15-1.25,4.15-3.35S1567.5,92.56,1564.76,92.56Z"/></g><path class="cls-3" d="M1568,105.7l-3.43-4.91a4.57,4.57,0,0,1-.64,0h-3.79v4.88H1557V88.93h6.91c4.41,0,7.14,2.25,7.14,6a5.34,5.34,0,0,1-3.57,5.29l3.86,5.51Zm-4.22-14.14h-3.64v6.69h3.64c2.74,0,4.15-1.25,4.15-3.35S1566.5,91.56,1563.76,91.56Z"/><g class="cls-2"><path d="M1586.4,102.82H1578l-1.65,3.88h-3.21l7.55-16.77h3.07l7.57,16.77h-3.26Zm-1-2.44L1582.21,93l-3.14,7.34Z"/></g><path class="cls-3" d="M1585.4,101.82H1577l-1.65,3.88h-3.21l7.55-16.77h3.07l7.57,16.77h-3.26Zm-1-2.44L1581.21,92l-3.14,7.34Z"/><g class="cls-2"><path d="M1596,92.56h-5.56V89.93h14.24v2.63h-5.56V106.7H1596Z"/></g><path class="cls-3" d="M1595,91.56h-5.56V88.93h14.24v2.63h-5.56V105.7H1595Z"/><g class="cls-2"><path d="M1617.1,102.82h-8.39l-1.66,3.88h-3.21l7.55-16.77h3.07L1622,106.7h-3.26Zm-1-2.44L1612.9,93l-3.14,7.34Z"/></g><path class="cls-3" d="M1616.1,101.82h-8.39l-1.66,3.88h-3.21l7.55-16.77h3.07L1621,105.7h-3.26Zm-1-2.44L1611.9,92l-3.14,7.34Z"/><path d="M1501.13,258.33l2.54,3.17c.08.11.17.21.26.32h0l3,4a2.41,2.41,0,0,0,3.55.31l5.1-4.69,8.27-7.33h0l.78-.69a6.7,6.7,0,0,0,.74-.77l3-2.94a2,2,0,0,0,.11-2.83l-2.71-3.1a7,7,0,0,0-.81-1l-.66-.68h0l-2.29-2.33c-3.65-13.5-11.1-19.86-16.68-19.18-3.27.41-6.18,3.86-6.4,7.92a2.46,2.46,0,0,0-3.37-.11L1493,230.7a2.46,2.46,0,0,0-.21,3.47l.06.07,0,0c-4.18-.43-7.93,1.9-8.75,5.19C1482.76,244.91,1488.18,253.08,1501.13,258.33Zm.4-32.12a6.36,6.36,0,0,1,4.29-4c2.25-.32,5.09,1.09,7.6,3.75a27.74,27.74,0,0,1,5.41,9l-7.86-7.79C1508.75,224.87,1504.44,225.14,1501.53,226.21Zm-16.11,13.59c.49-1.64,2.7-3.36,4.76-3.7-1.59,2.84-2.26,7-.19,9.44l7.31,8.78a28.89,28.89,0,0,1-8.94-6.41C1485.84,245.08,1484.74,242.05,1485.42,239.8Z"/><path class="cls-3" d="M1500.13,257.33l2.54,3.17c.08.11.17.21.26.32h0l3,4a2.41,2.41,0,0,0,3.55.31l5.1-4.69,8.27-7.33h0l.78-.69a6.7,6.7,0,0,0,.74-.77l3-2.94a2,2,0,0,0,.11-2.83l-2.71-3.1a7,7,0,0,0-.81-1l-.66-.68h0l-2.29-2.33c-3.65-13.5-11.1-19.86-16.68-19.18-3.27.41-6.18,3.86-6.4,7.92a2.46,2.46,0,0,0-3.37-.11L1492,229.7a2.46,2.46,0,0,0-.21,3.47l.06.07,0,0c-4.18-.43-7.93,1.9-8.75,5.19C1481.76,243.91,1487.18,252.08,1500.13,257.33Zm.4-32.12a6.36,6.36,0,0,1,4.29-4c2.25-.32,5.09,1.09,7.6,3.75a27.74,27.74,0,0,1,5.41,9l-7.86-7.79C1507.75,223.87,1503.44,224.14,1500.53,225.21Zm-16.11,13.59c.49-1.64,2.7-3.36,4.76-3.7-1.59,2.84-2.26,7-.19,9.44l7.31,8.78a28.89,28.89,0,0,1-8.94-6.41C1484.84,244.08,1483.74,241.05,1484.42,238.8Z"/><path class="cls-3" d="M1510.82,221a7.5,7.5,0,0,1-2.42,2.53c-1.37.72-4.66-.28-4.66-.28a6.89,6.89,0,0,1-2.56-4.42C1501,216.29,1510.82,221,1510.82,221Z"/></g></g></g></g></svg>
