<?xml version="1.0" encoding="UTF-8" standalone="no"?>
<svg xmlns:rdf="http://www.w3.org/1999/02/22-rdf-syntax-ns#" xmlns="http://www.w3.org/2000/svg" version="1.1" xmlns:cc="http://creativecommons.org/ns#" xmlns:dc="http://purl.org/dc/elements/1.1/" viewBox="0 0 1921 540">
 <metadata>
  <rdf:RDF>
   <cc:Work rdf:about="">
    <dc:format>image/svg+xml</dc:format>
    <dc:type rdf:resource="http://purl.org/dc/dcmitype/StillImage"/>
    <dc:title>Risorsa 3supportgrafica</dc:title>
   </cc:Work>
  </rdf:RDF>
 </metadata>
 <defs>
  <style>.cls-1{fill:#c7147f;}.cls-2{fill:#fff;}</style>
 </defs>
 <title>Risorsa 3supportgrafica</title>
 <path fill="#c7147f" d="m0 0h1921v540h-1921z"/>
 <g fill="#fff">
  <path d="m598 167.5h-2.84a2.2 2.2 0 1 1 -0.11 -4.39h2c0-0.43 0.06-0.75 0.07-1.07s0-0.64 0-1.14h-2.17a2.17 2.17 0 0 1 -2.18 -2.24 2 2 0 0 1 2.28 -2.1c2.23 0.29 3.15-0.62 4.14-2.63a16.76 16.76 0 0 1 24.52 -6.5c1.21 0.84 1.58 1.89 1.05 3a2.2 2.2 0 0 1 -2.74 1.09 8.9 8.9 0 0 1 -1.29 -0.75 12.53 12.53 0 0 0 -17.67 5.16c-0.07 0.14-0.12 0.29-0.25 0.63h6.89 2.74a2.2 2.2 0 1 1 -0.09 4.39h-9.35-1.33v2.16h3.84 6.73a2.29 2.29 0 0 1 2.52 2.2c0 1.32-1 2.2-2.61 2.21h-9.4c0.27 0.53 0.44 0.94 0.66 1.31a12.57 12.57 0 0 0 17.66 4.29 3.62 3.62 0 0 1 2.52 -0.46 2.28 2.28 0 0 1 1.27 1.74 2.81 2.81 0 0 1 -1 2.06 15.64 15.64 0 0 1 -11.8 2.89c-6.69-1-11.22-4.84-13.75-11.08-0.09-0.27-0.2-0.47-0.31-0.77z" class="cls-2"/>
  <path d="m807 165.5h-2.84a2.2 2.2 0 1 1 -0.11 -4.39h2c0-0.43 0.06-0.75 0.07-1.07s0-0.64 0-1.14h-2.17a2.17 2.17 0 0 1 -2.18 -2.24 2 2 0 0 1 2.28 -2.1c2.23 0.29 3.15-0.62 4.14-2.63a16.76 16.76 0 0 1 24.52 -6.5c1.21 0.84 1.58 1.89 1.05 3a2.2 2.2 0 0 1 -2.74 1.09 8.9 8.9 0 0 1 -1.29 -0.75 12.53 12.53 0 0 0 -17.67 5.16c-0.07 0.14-0.12 0.29-0.25 0.63h6.89 2.74a2.2 2.2 0 1 1 -0.09 4.39h-9.35-1.33v2.16h3.84 6.73a2.29 2.29 0 0 1 2.52 2.2c0 1.32-1 2.2-2.61 2.21h-9.4c0.27 0.53 0.44 0.94 0.66 1.31a12.57 12.57 0 0 0 17.66 4.29 3.62 3.62 0 0 1 2.52 -0.46 2.28 2.28 0 0 1 1.27 1.74 2.81 2.81 0 0 1 -1 2.06 15.64 15.64 0 0 1 -11.8 2.89c-6.69-1-11.22-4.84-13.75-11.08-0.09-0.27-0.2-0.47-0.31-0.77z" class="cls-2"/>
  <path d="m598 379.5h-2.84a2.2 2.2 0 1 1 -0.11 -4.39h2c0-0.43 0.06-0.75 0.07-1.07s0-0.64 0-1.14h-2.17a2.17 2.17 0 0 1 -2.18 -2.24 2 2 0 0 1 2.28 -2.1c2.23 0.29 3.15-0.62 4.14-2.63a16.76 16.76 0 0 1 24.52 -6.5c1.21 0.84 1.58 1.89 1.05 3a2.2 2.2 0 0 1 -2.74 1.09 8.9 8.9 0 0 1 -1.29 -0.75 12.53 12.53 0 0 0 -17.67 5.16c-0.07 0.14-0.12 0.29-0.25 0.63h6.89 2.74a2.2 2.2 0 1 1 -0.09 4.39h-9.35-1.33v2.16h3.84 6.73a2.29 2.29 0 0 1 2.52 2.2c0 1.32-1 2.2-2.61 2.21h-9.4c0.27 0.53 0.44 0.94 0.66 1.31a12.57 12.57 0 0 0 17.66 4.29 3.62 3.62 0 0 1 2.52 -0.46 2.28 2.28 0 0 1 1.27 1.74 2.81 2.81 0 0 1 -1 2.06 15.64 15.64 0 0 1 -11.8 2.89c-6.69-1-11.22-4.84-13.75-11.08-0.09-0.27-0.2-0.47-0.31-0.77z" class="cls-2"/>
  <path d="m807 379.5h-2.84a2.2 2.2 0 1 1 -0.11 -4.39h2c0-0.43 0.06-0.75 0.07-1.07s0-0.64 0-1.14h-2.17a2.17 2.17 0 0 1 -2.18 -2.24 2 2 0 0 1 2.28 -2.1c2.23 0.29 3.15-0.62 4.14-2.63a16.76 16.76 0 0 1 24.52 -6.5c1.21 0.84 1.58 1.89 1.05 3a2.2 2.2 0 0 1 -2.74 1.09 8.9 8.9 0 0 1 -1.29 -0.75 12.53 12.53 0 0 0 -17.67 5.16c-0.07 0.14-0.12 0.29-0.25 0.63h6.89 2.74a2.2 2.2 0 1 1 -0.09 4.39h-9.35-1.33v2.16h3.84 6.73a2.29 2.29 0 0 1 2.52 2.2c0 1.32-1 2.2-2.61 2.21h-9.4c0.27 0.53 0.44 0.94 0.66 1.31a12.57 12.57 0 0 0 17.66 4.29 3.62 3.62 0 0 1 2.52 -0.46 2.28 2.28 0 0 1 1.27 1.74 2.81 2.81 0 0 1 -1 2.06 15.64 15.64 0 0 1 -11.8 2.89c-6.69-1-11.22-4.84-13.75-11.08-0.09-0.27-0.2-0.47-0.31-0.77z" class="cls-2"/>
  <path d="m1134.6 357-8.4-4.8a1.2 1.2 0 0 0 -0.6 -0.16h-3.6a1.2 1.2 0 0 1 0 0.3 6 6 0 0 1 -12 0 1.2 1.2 0 0 1 0 -0.3h-3.64a1.21 1.21 0 0 0 -0.6 0.16l-8.4 4.8a1.2 1.2 0 0 0 -0.56 1.37l2.4 8.4a1.21 1.21 0 0 0 1.44 0.84l3.31-0.83v20.02a1.2 1.2 0 0 0 1.2 1.2h21.6a1.2 1.2 0 0 0 1.2 -1.2v-20.06l3.31 0.83a1.2 1.2 0 0 0 1.44 -0.84l2.4-8.4a1.2 1.2 0 0 0 -0.5 -1.33z" class="cls-2"/>
  <path d="m1330.6 357-8.4-4.8a1.2 1.2 0 0 0 -0.6 -0.16h-3.6a1.2 1.2 0 0 1 0 0.3 6 6 0 0 1 -12 0 1.2 1.2 0 0 1 0 -0.3h-3.64a1.21 1.21 0 0 0 -0.6 0.16l-8.4 4.8a1.2 1.2 0 0 0 -0.56 1.37l2.4 8.4a1.21 1.21 0 0 0 1.44 0.84l3.31-0.83v20.02a1.2 1.2 0 0 0 1.2 1.2h21.6a1.2 1.2 0 0 0 1.2 -1.2v-20.06l3.31 0.83a1.2 1.2 0 0 0 1.44 -0.84l2.4-8.4a1.2 1.2 0 0 0 -0.5 -1.33z" class="cls-2"/>
  <path d="m1330.6 154-8.4-4.8a1.2 1.2 0 0 0 -0.6 -0.16h-3.6a1.2 1.2 0 0 1 0 0.3 6 6 0 0 1 -12 0 1.2 1.2 0 0 1 0 -0.3h-3.64a1.21 1.21 0 0 0 -0.6 0.16l-8.4 4.8a1.2 1.2 0 0 0 -0.56 1.37l2.4 8.4a1.21 1.21 0 0 0 1.44 0.84l3.31-0.83v20.02a1.2 1.2 0 0 0 1.2 1.2h21.6a1.2 1.2 0 0 0 1.2 -1.2v-20.06l3.31 0.83a1.2 1.2 0 0 0 1.44 -0.84l2.4-8.4a1.2 1.2 0 0 0 -0.5 -1.33z" class="cls-2"/>
  <path d="m1134.6 154-8.4-4.8a1.2 1.2 0 0 0 -0.6 -0.16h-3.6a1.2 1.2 0 0 1 0 0.3 6 6 0 0 1 -12 0 1.2 1.2 0 0 1 0 -0.3h-3.64a1.21 1.21 0 0 0 -0.6 0.16l-8.4 4.8a1.2 1.2 0 0 0 -0.56 1.37l2.4 8.4a1.21 1.21 0 0 0 1.44 0.84l3.31-0.83v20.02a1.2 1.2 0 0 0 1.2 1.2h21.6a1.2 1.2 0 0 0 1.2 -1.2v-20.06l3.31 0.83a1.2 1.2 0 0 0 1.44 -0.84l2.4-8.4a1.2 1.2 0 0 0 -0.5 -1.33z" class="cls-2"/>
  <path d="m1083.4 141.72-7.8-8.16c0 0.92-0.06 1.76-0.12 2.58-0.14 2-1.29 3.57-3.25 3.25-1.31-0.21-3.34-1.65-3.43-2.68a77.51 77.51 0 0 1 0 -13.32c0.08-1 2.24-2.36 3.54-2.49 3.55-0.35 7.15-0.11 10.73-0.13 2.27 0 3.83 0.93 3.92 3.3s-1.35 3.5-3.62 3.65h-1.87l7.93 7.44c20.62-16.21 47.51-7.57 58.7 8.38 11.81 16.83 9.45 39.85-5.82 53.49a40.85 40.85 0 0 1 -54.79 -0.12 40.32 40.32 0 0 1 -4.12 -55.19zm-2.25 25.5a33.77 33.77 0 0 0 67.53 -0.23c-0.05-18.36-15.33-33.37-33.9-33.3a33.61 33.61 0 0 0 -33.64 33.53z" class="cls-2"/>
  <path d="m1336.8 135.59 8.18-7.92h-3c-2-0.13-3.29-1.43-3-3.17 0.22-1.32 1.59-3.38 2.6-3.47a81.06 81.06 0 0 1 13 -0.06c2.17 0.16 3.08 2.15 3.11 4.3v9.87c0 2.32-0.88 4.05-3.48 4.07s-3.51-1.63-3.49-4c0-0.56-0.06-1.12-0.07-1.29l-7.69 7.76c7.73 9.7 10.53 21.4 7.69 34.24a38.85 38.85 0 0 1 -15.74 23.61 41.37 41.37 0 0 1 -54 -5.16 39.92 39.92 0 0 1 -1.67 -52.57c12.15-15.13 37.01-21.8 57.56-6.21zm7.88 31.22a33.78 33.78 0 0 0 -67.56 -0.29 33.78 33.78 0 0 0 67.56 0.29z" class="cls-2"/>
  <path d="m1089.4 398.67-7.83 7.73c0.84 0 1.76 0.06 2.67 0.13 2 0.17 3.28 1.46 3 3.2-0.23 1.32-1.61 3.37-2.62 3.46a80.77 80.77 0 0 1 -13 0c-2.17-0.16-3.07-2.16-3.09-4.31q0-4.93 0-9.87c0-2.31 0.89-4.06 3.49-4.07s3.51 1.64 3.48 4c0 0.56 0.06 1.11 0.08 1.33l7.7-7.8c-7.67-9.65-10.53-21.24-7.75-34a39 39 0 0 1 15.65 -23.67 41.12 41.12 0 0 1 54 4.78 40 40 0 0 1 2 52.56c-12.13 15.21-37.03 22.27-57.78 6.53zm-7.93-31.29a33.77 33.77 0 1 0 33.81 -33.38 33.57 33.57 0 0 0 -33.81 33.38z" class="cls-2"/>
  <path d="m1342.7 393.05 7.73 7.83c0-0.84 0.06-1.76 0.13-2.67 0.17-2 1.46-3.28 3.2-3 1.32 0.23 3.37 1.61 3.46 2.62a80.77 80.77 0 0 1 0 13c-0.16 2.17-2.16 3.07-4.31 3.09q-4.93 0-9.87 0c-2.31 0-4.06-0.89-4.07-3.49s1.64-3.51 4-3.48c0.56 0 1.11-0.06 1.33-0.08l-7.8-7.7c-9.65 7.67-21.24 10.53-34 7.75a39 39 0 0 1 -23.67 -15.65 41.12 41.12 0 0 1 4.78 -54 40 40 0 0 1 52.56 -2c15.21 12.13 22.27 37.04 6.53 57.78zm-31.3 7.95a33.77 33.77 0 1 0 -33.4 -33.83 33.57 33.57 0 0 0 33.4 33.83z" class="cls-2"/>
  <path d="m1129.5 269.23h-9.56c-2.29 0-4.07-0.8-4.05-3.44s1.62-3.52 4-3.51h19.1c2.23 0 3.8 0.8 3.88 3.27s-1.46 3.63-3.82 3.67c-3.15 0.04-6.33 0-9.52 0.01z" class="cls-2"/>
  <path d="m1307.9 262.27h9.28c2.24 0 3.81 0.84 3.85 3.31s-1.46 3.57-3.66 3.61c-6.38 0.09-12.76 0.08-19.13 0-2.27 0-3.62-1.26-3.52-3.66s1.47-3.23 3.62-3.24c3.18-0.03 6.37-0.02 9.56-0.02z" class="cls-2"/>
  <path d="m1144.1 246.82c-6.3-1.44-11.9-2.55-17.36-4.14-1-0.29-2.17-2.67-1.93-3.81s2.31-2.82 3.32-2.65a154.69 154.69 0 0 1 17 3.77c1 0.27 2 2.68 1.83 3.9s-1.98 2.11-2.86 2.93z" class="cls-2"/>
  <path d="m1127.1 296c-0.87-0.93-2.69-2-2.7-3.08 0-1.37 1.18-3.65 2.31-4a138.1 138.1 0 0 1 16.37 -3.63c1.06-0.17 3.2 1.41 3.45 2.5s-0.85 3.64-1.83 3.93c-5.54 1.66-11.22 2.8-17.6 4.28z" class="cls-2"/>
  <path d="m1293.4 285.25c6.18 1.48 11.66 2.61 17 4.22 1 0.29 2 2.69 1.75 3.93-0.17 1-2.23 2.68-3.17 2.51a158.3 158.3 0 0 1 -16.52 -3.93c-0.93-0.27-2-2.55-1.75-3.68s1.85-2.16 2.69-3.05z" class="cls-2"/>
  <path d="m1293.4 246.52c-0.85-0.88-2.67-1.92-2.71-3 0-1.36 1.12-3.66 2.24-4a115.39 115.39 0 0 1 15.47 -3.59c1.14-0.18 3.28 1.42 3.69 2.63 0.34 1-0.94 3.51-2 3.82-5.21 1.62-10.6 2.68-16.69 4.14z" class="cls-2"/>
  <path d="m643.72 186.52 7.8 8.16c0-0.92 0.06-1.76 0.12-2.58 0.14-2 1.29-3.57 3.25-3.25 1.31 0.21 3.34 1.65 3.43 2.68a77.51 77.51 0 0 1 0 13.32c-0.08 1-2.24 2.36-3.54 2.49-3.55 0.35-7.15 0.11-10.73 0.13-2.27 0-3.83-0.93-3.92-3.3s1.35-3.5 3.62-3.65h1.87l-7.93-7.44c-20.62 16.21-47.51 7.57-58.7-8.38-11.81-16.83-9.45-39.85 5.82-53.49a40.85 40.85 0 0 1 54.79 0.12 40.32 40.32 0 0 1 4.12 55.19zm2.28-25.52a33.77 33.77 0 0 0 -67.53 0.23c0.05 18.36 15.33 33.37 33.9 33.3a33.61 33.61 0 0 0 33.63 -33.53z" class="cls-2"/>
  <path d="m794.09 192.34-8.18 7.92h3c2 0.13 3.29 1.43 3 3.17-0.22 1.32-1.59 3.38-2.6 3.47a81.06 81.06 0 0 1 -13 0.06c-2.17-0.16-3.08-2.15-3.11-4.3v-9.87c0-2.32 0.88-4.05 3.48-4.07s3.51 1.63 3.49 4c0 0.56 0.06 1.12 0.07 1.29l7.69-7.76c-7.73-9.7-10.53-21.4-7.69-34.24a38.85 38.85 0 0 1 15.76 -23.59 41.37 41.37 0 0 1 54 5.16 39.92 39.92 0 0 1 1.67 52.57c-12.17 15.11-37.03 21.85-57.58 6.19zm-7.88-31.22a33.78 33.78 0 0 0 67.56 0.29 33.78 33.78 0 0 0 -67.56 -0.29z" class="cls-2"/>
  <path d="m638.05 341.81 7.83-7.73c-0.84 0-1.76-0.06-2.67-0.13-2-0.17-3.28-1.46-3-3.2 0.23-1.32 1.61-3.37 2.62-3.46a80.77 80.77 0 0 1 13 0c2.17 0.16 3.07 2.16 3.09 4.31q0 4.93 0 9.87c0 2.31-0.89 4.06-3.49 4.07s-3.51-1.64-3.48-4c0-0.56-0.06-1.11-0.08-1.33l-7.7 7.8c7.67 9.65 10.53 21.24 7.75 34a39 39 0 0 1 -15.65 23.67 41.12 41.12 0 0 1 -54 -4.78 40 40 0 0 1 -2 -52.56c12.13-15.22 37.04-22.27 57.78-6.53zm7.95 31.28a33.77 33.77 0 1 0 -33.81 33.42 33.57 33.57 0 0 0 33.81 -33.42z" class="cls-2"/>
  <path d="m788.81 347.42-7.73-7.83c0 0.84-0.06 1.76-0.13 2.67-0.17 2-1.46 3.28-3.2 3-1.32-0.23-3.37-1.61-3.46-2.62a80.77 80.77 0 0 1 0 -13c0.16-2.17 2.16-3.07 4.31-3.09q4.93 0 9.87 0c2.31 0 4.06 0.89 4.07 3.49s-1.64 3.51-4 3.48c-0.56 0-1.11 0.06-1.33 0.08l7.8 7.7c9.65-7.67 21.24-10.53 34-7.75a39 39 0 0 1 23.67 15.65 41.12 41.12 0 0 1 -4.78 54 40 40 0 0 1 -52.56 2c-15.22-12.13-22.27-37.03-6.53-57.78zm31.29-7.93a33.77 33.77 0 1 0 33.42 33.81 33.57 33.57 0 0 0 -33.42 -33.81z" class="cls-2"/>
  <path d="m632.54 269.23h-9.56c-2.29 0-4.07-0.8-4.05-3.44s1.62-3.52 4-3.51h19.07c2.23 0 3.8 0.8 3.88 3.27s-1.46 3.63-3.82 3.67c-3.15 0.04-6.33 0-9.52 0.01z" class="cls-2"/>
  <path d="m810.94 262.27h9.28c2.24 0 3.81 0.84 3.85 3.31s-1.46 3.57-3.66 3.61c-6.38 0.09-12.76 0.08-19.13 0-2.27 0-3.62-1.26-3.52-3.66s1.47-3.23 3.62-3.24c3.18-0.03 6.37-0.02 9.56-0.02z" class="cls-2"/>
  <path d="m647.12 246.82c-6.3-1.44-11.9-2.55-17.36-4.14-1-0.29-2.17-2.67-1.93-3.81s2.31-2.82 3.32-2.65a154.69 154.69 0 0 1 17 3.77c1 0.27 2 2.68 1.83 3.9s-1.98 2.11-2.86 2.93z" class="cls-2"/>
  <path d="m630.14 296c-0.87-0.93-2.69-2-2.7-3.08 0-1.37 1.18-3.65 2.31-4a138.1 138.1 0 0 1 16.37 -3.63c1.06-0.17 3.2 1.41 3.45 2.5s-0.85 3.64-1.83 3.93c-5.54 1.66-11.22 2.8-17.6 4.28z" class="cls-2"/>
  <path d="m796.4 285.25c6.18 1.48 11.66 2.61 17 4.22 1 0.29 2 2.69 1.75 3.93-0.17 1-2.23 2.68-3.17 2.51a158.3 158.3 0 0 1 -16.53 -3.91c-0.93-0.27-2-2.55-1.75-3.68s1.86-2.18 2.7-3.07z" class="cls-2"/>
  <path d="m796.44 246.52c-0.85-0.88-2.67-1.92-2.71-3 0-1.36 1.12-3.66 2.24-4a115.39 115.39 0 0 1 15.47 -3.59c1.14-0.18 3.28 1.42 3.69 2.63 0.34 1-0.94 3.51-2 3.82-5.21 1.62-10.6 2.68-16.69 4.14z" class="cls-2"/>
  <path d="m931.5 287.65 33.69-0.84c-1.2 1.18-2.75 2.55-4.12 4.09-4.69 5.27-5.36 11 0 15.93s10.87 3.72 15.85-1.26c7.85-7.85 16.33-15.16 23.4-23.65 2.6-3.12 4.31-10.91 2.39-13.21a240.3 240.3 0 0 0 -29.05 -29.33c-2.45-2.08-10.06-0.83-13.41 1.55-5 3.56-4.23 9.44-0.09 14.24 1.68 2 3.45 3.83 5.37 6l-35-1z" class="cls-2"/>
  <path d="m120.76 266.89 3.71 11.45 3.6-11.45h3.71l3.66 11.45 3.63-11.45h3.71l-5.5 15.17h-3.77l-3.63-10.69-3.6 10.69h-3.77l-5.51-15.14z" class="cls-2"/>
  <path d="m146.43 266.89 3.71 11.45 3.6-11.45h3.71l3.66 11.45 3.63-11.45h3.71l-5.45 15.17h-3.77l-3.63-10.69-3.6 10.69h-3.77l-5.56-15.14z" class="cls-2"/>
  <path d="m172.09 266.89 3.71 11.45 3.6-11.45h3.71l3.66 11.45 3.63-11.45h3.71l-5.5 15.17h-3.77l-3.63-10.69-3.6 10.69h-3.77l-5.56-15.14z" class="cls-2"/>
  <path d="m198.47 280.25a1.95 1.95 0 1 1 -3.88 0 1.94 1.94 0 1 1 3.88 0z" class="cls-2"/>
  <path d="m218.11 274.55c0 4.56-2.81 7.65-7.12 7.65a5.86 5.86 0 0 1 -5.16 -2.61v8h-3.69v-20.7h3.69v2.5a5.76 5.76 0 0 1 5.1 -2.61c4.29 0 7.18 3.12 7.18 7.77zm-3.74-0.11a4.28 4.28 0 1 0 -8.53 0c0 2.72 1.76 4.59 4.28 4.59s4.25-1.9 4.25-4.6z" class="cls-2"/>
  <path d="m236 274.46c0 4.62-3.26 7.74-8 7.74s-8-3.12-8-7.74 3.26-7.68 8-7.68 8 3.09 8 7.68zm-12.28 0.06c0 2.72 1.76 4.59 4.25 4.59s4.28-1.87 4.28-4.59a4.22 4.22 0 0 0 -4.28 -4.56c-2.54 0.04-4.29 1.84-4.29 4.56z" class="cls-2"/>
  <path d="m243 261v21h-3.7v-21z" class="cls-2"/>
  <path d="m251.64 262.55a2.07 2.07 0 1 1 -2.07 -2.18 2.06 2.06 0 0 1 2.07 2.18zm-0.23 4.34v15.17h-3.69v-15.17z" class="cls-2"/>
  <path d="m281.38 272.59v9.47h-3.71v-8.39a3.14 3.14 0 0 0 -3.32 -3.46c-2.38 0.08-3.83 1.9-3.83 4.37v7.48h-3.71v-8.39a3.12 3.12 0 0 0 -3.29 -3.46c-2.41 0.08-3.86 1.9-3.86 4.37v7.48h-3.66v-15.17h3.69v2.81a5.61 5.61 0 0 1 5.33 -2.95 5 5 0 0 1 5.22 3.63 5.63 5.63 0 0 1 5.64 -3.63c3.4 0 5.5 2.25 5.5 5.84z" class="cls-2"/>
  <path d="m289.41 262.55a2.07 2.07 0 1 1 -2.07 -2.18 2.06 2.06 0 0 1 2.07 2.18zm-0.23 4.34v15.17h-3.68v-15.17z" class="cls-2"/>
  <path d="m309.85 274.55c0 4.56-2.81 7.65-7.12 7.65a5.86 5.86 0 0 1 -5.16 -2.61v8h-3.69v-20.7h3.69v2.5a5.76 5.76 0 0 1 5.1 -2.61c4.33 0 7.18 3.12 7.18 7.77zm-3.74-0.11a4.28 4.28 0 1 0 -8.53 0c0 2.72 1.76 4.59 4.28 4.59s4.25-1.9 4.25-4.6z" class="cls-2"/>
  <path d="m321.91 266.75v3.57c-3.2-0.2-5.16 1.67-5.16 4.42v7.31h-3.69v-15.16h3.69v2.92a5.52 5.52 0 0 1 5.16 -3.06z" class="cls-2"/>
  <path d="m328.4 262.55a2.07 2.07 0 1 1 -2.07 -2.18 2.06 2.06 0 0 1 2.07 2.18zm-0.23 4.34v15.17h-3.69v-15.17z" class="cls-2"/>
  <path d="m347.37 261v21h-3.69v-2.44a5.76 5.76 0 0 1 -5.1 2.61c-4.34 0-7.23-3.17-7.23-7.8s2.89-7.68 7.14-7.68a5.84 5.84 0 0 1 5.19 2.64v-8.33zm-3.69 13.5c0-2.72-1.76-4.62-4.31-4.62s-4.28 1.93-4.31 4.62 1.76 4.62 4.31 4.62 4.31-1.88 4.31-4.6z" class="cls-2"/>
  <path d="m365.69 275.77h-11.2a4.23 4.23 0 0 0 4.34 3.46 5.63 5.63 0 0 0 4.08 -1.7l2 2.07a8.42 8.42 0 0 1 -6.38 2.61c-4.71 0-7.8-3.12-7.8-7.68a7.36 7.36 0 0 1 7.71 -7.74c5.32-0.01 7.62 3.48 7.25 8.98zm-3.35-2.47a3.61 3.61 0 0 0 -3.88 -3.66 4 4 0 0 0 -4.05 3.66z" class="cls-2"/>
  <path d="m371.73 280.25a1.95 1.95 0 1 1 -3.88 0 1.94 1.94 0 1 1 3.88 0z" class="cls-2"/>
  <path d="m379.19 262.55a2.07 2.07 0 1 1 -2.07 -2.18 2.06 2.06 0 0 1 2.07 2.18zm-0.23 4.34v15.17h-3.69v-15.17z" class="cls-2"/>
  <path d="m392.4 281.13a7.3 7.3 0 0 1 -3.8 1.11 4.14 4.14 0 0 1 -4.45 -4.54v-7.48h-2.15v-2.69h2.15v-4.17h3.66v4.17h4.34v2.69h-4.34v6.78c0 1.45 0.6 1.93 1.59 1.93a5.16 5.16 0 0 0 2.15 -0.62z" class="cls-2"/>
  <path d="m1435.6 287.89 33.69-1.07c-1.19 1.19-2.73 2.57-4.09 4.12-4.66 5.31-5.28 11 0.07 15.93s10.89 3.64 15.84-1.37c7.8-7.9 16.23-15.27 23.24-23.81 2.58-3.14 4.23-10.94 2.3-13.22a240.3 240.3 0 0 0 -29.25 -29.13c-2.47-2.06-10.07-0.76-13.4 1.64-5 3.59-4.16 9.47 0 14.24 1.69 1.94 3.47 3.81 5.41 5.92l-35-0.79z" class="cls-2"/>
  <path d="m1558 155.67v2.86h-6v16h-3.18v-16h-6v-2.86z" class="cls-2"/>
  <path d="m1563.9 155.67v18.89h-3.19v-18.89z" class="cls-2"/>
  <path d="m1582.4 155.67v2.86h-10.4v5.1h9.23v2.86h-9.2v5.21h10.63v2.86h-13.82v-18.89z" class="cls-2"/>
  <path d="m1589.7 155.67 10.12 13.58v-13.58h3.18v18.89h-3.13l-10.1-13.56v13.55h-3.19v-18.88z" class="cls-2"/>
  <path d="m1611.1 155.67v18.89h-3.1v-18.89z" class="cls-2"/>
  <path d="m1629 155.67v2.86h-6v16h-3.18v-16h-6v-2.86z" class="cls-2"/>
  <path d="m1634.9 155.67v18.89h-3.18v-18.89z" class="cls-2"/>
  <path d="m1661.9 162.12c0 4.26-2.73 6.75-7.48 6.75h-4.4v5.7h-3.18v-18.9h7.53c4.79 0 7.52 2.33 7.52 6.45zm-3.05 0.08c0-2.48-1.65-3.67-4.56-3.67h-4.2v7.47h4.21c2.96 0 4.61-1.24 4.61-3.8z" class="cls-2"/>
  <path d="m1677 174.56-3.46-5.72h-0.86-4.48v5.7h-3.2v-18.87h7.67c4.83 0 7.61 2.35 7.61 6.45a6.07 6.07 0 0 1 -3.91 6.13l4.24 6.32zm-4.3-8.56c2.92 0 4.59-1.24 4.59-3.81s-1.67-3.67-4.59-3.67h-4.48v7.48z" class="cls-2"/>
  <path d="m1703 165.11a10 10 0 0 1 -20 0c0-5.43 4.37-9.53 10-9.53s10 4.13 10 9.53zm-16.79 0a6.77 6.77 0 0 0 6.8 6.72 6.69 6.69 0 1 0 -6.8 -6.72z" class="cls-2"/>
  <path d="m1709.6 155.67 10.12 13.58v-13.58h3.13v18.89h-3.13l-10.1-13.56v13.55h-3.19v-18.88z" class="cls-2"/>
  <path d="m1740.7 155.67v2.86h-6v16h-3.19v-16h-6v-2.86z" class="cls-2"/>
  <path d="m1760.8 165.11a10 10 0 0 1 -20 0c0-5.43 4.37-9.53 10-9.53s10 4.13 10 9.53zm-16.79 0a6.77 6.77 0 0 0 6.8 6.72 6.69 6.69 0 1 0 -6.8 -6.72z" class="cls-2"/>
  <path d="m1575.5 202.7h-9.53l-1.81 4.26h-3.32l8.34-18.89h3.27l8.26 18.89h-3.4zm-1.21-2.83-3.56-8.4-3.56 8.4z" class="cls-2"/>
  <path d="m1586.4 188.07v16h8.18v2.93h-11.36v-18.93z" class="cls-2"/>
  <path d="m1600.8 188.07v16h8.2v2.93h-11.36v-18.93z" class="cls-2"/>
  <path d="m1624.4 202.7h-9.53l-1.81 4.26h-3.32l8.34-18.89h3.27l8.26 18.93h-3.4zm-1.21-2.83-3.56-8.4-3.56 8.4z" class="cls-2"/>
  <path d="m1654.1 194.52c0 4.26-2.73 6.75-7.48 6.75h-4.35v5.73h-3.18v-18.93h7.53c4.76 0 7.48 2.34 7.48 6.45zm-3 0.08c0-2.48-1.65-3.67-4.56-3.67h-4.21v7.48h4.21c2.87-0.01 4.47-1.25 4.47-3.81z" class="cls-2"/>
  <path d="m1668.3 202.7h-9.53l-1.81 4.26h-3.32l8.34-18.89h3.27l8.26 18.89h-3.4zm-1.21-2.83-3.56-8.4-3.56 8.4z" class="cls-2"/>
  <path d="m1688 207-3.46-5.72h-0.86-4.48v5.72h-3.2v-18.93h7.67c4.83 0 7.61 2.35 7.61 6.45a6.07 6.07 0 0 1 -3.91 6.13l4.24 6.32zm-4.32-8.56c2.91 0 4.59-1.24 4.59-3.81s-1.67-3.67-4.59-3.67h-4.48v7.48z" class="cls-2"/>
  <path d="m1707.7 202.7h-9.53l-1.81 4.26h-3.32l8.34-18.89h3.27l8.26 18.89h-3.4zm-1.21-2.83-3.56-8.4-3.56 8.4z" class="cls-2"/>
  <path d="m1726.5 188.07v2.86h-6v16h-3.19v-16h-6v-2.86z" class="cls-2"/>
  <path d="m1739.6 202.7h-9.6l-1.81 4.26h-3.32l8.34-18.89h3.27l8.26 18.89h-3.4zm-1.21-2.83-3.56-8.4-3.56 8.4z" class="cls-2"/>
  <path d="m1749.7 205.4a1.7 1.7 0 1 1 -3.4 0 1.7 1.7 0 1 1 3.4 0zm-0.24-17.09v4.69l-0.49 8h-2l-0.49-8v-4.64z" class="cls-2"/>
  <path d="m436.6 287.89 33.69-1.07c-1.19 1.19-2.73 2.57-4.09 4.12-4.66 5.31-5.28 11 0.07 15.93s10.89 3.64 15.84-1.37c7.8-7.9 16.23-15.27 23.24-23.81 2.58-3.14 4.23-10.94 2.3-13.22a240.3 240.3 0 0 0 -29.25 -29.13c-2.47-2.06-10.07-0.76-13.4 1.64-5 3.59-4.16 9.47 0 14.24 1.69 1.94 3.47 3.81 5.41 5.92l-35-0.79z" class="cls-2"/>
  <path d="m725.31 245.55a14.56 14.56 0 0 1 6.78 10.82 11.75 11.75 0 1 0 -6.78 -10.82zm16.69 12.73h-9.9a14.48 14.48 0 0 1 -4.47 10.09 17.88 17.88 0 0 1 12.77 17.11v3.76c9.77-0.36 15.4-3.13 15.77-3.31l0.79-0.4h0.08v-12.2a15.06 15.06 0 0 0 -15.04 -15.05zm-45-0.8a11.67 11.67 0 0 0 6.25 -1.81 14.54 14.54 0 0 1 5.47 -9.28v-0.66a11.75 11.75 0 1 0 -11.72 11.75zm10.55 10.89a14.49 14.49 0 0 1 -4.47 -10c-0.37 0-0.73-0.06-1.1-0.06h-9.98a15.06 15.06 0 0 0 -15 15v12.39l0.84 0.26a70.55 70.55 0 0 0 16.94 3.19v-3.68a17.88 17.88 0 0 1 12.76 -17.1z" class="cls-2"/>
  <path d="m729.36 257.86a11.75 11.75 0 0 1 -11.75 11.75 11.75 11.75 0 0 1 -11.75 -11.75 11.75 11.75 0 0 1 11.75 -11.75 11.75 11.75 0 0 1 11.75 11.75z"/>
  <path d="m722.6 270.41h-10a15.06 15.06 0 0 0 -15 15v12.38l0.84 0.26a68.49 68.49 0 0 0 20.46 3.3c11.06 0 17.47-3.15 17.86-3.35l0.78-0.4h0.08v-12.2a15.06 15.06 0 0 0 -15.02 -14.99z" class="cls-2"/>
  <path d="m1224.3 245.55a14.56 14.56 0 0 1 6.78 10.82 11.75 11.75 0 1 0 -6.78 -10.82zm16.69 12.73h-9.9a14.48 14.48 0 0 1 -4.47 10.09 17.88 17.88 0 0 1 12.77 17.11v3.76c9.77-0.36 15.4-3.13 15.77-3.31l0.79-0.4h0.08v-12.2a15.06 15.06 0 0 0 -15.1 -15.05zm-45-0.8a11.67 11.67 0 0 0 6.25 -1.81 14.54 14.54 0 0 1 5.47 -9.28v-0.66a11.75 11.75 0 1 0 -11.7 11.75zm10.55 10.89a14.49 14.49 0 0 1 -4.47 -10c-0.37 0-0.73-0.06-1.1-0.06h-10a15.06 15.06 0 0 0 -15 15v12.39l0.84 0.26a70.55 70.55 0 0 0 16.94 3.19v-3.68a17.88 17.88 0 0 1 12.78 -17.1z" class="cls-2"/>
  <path d="m1228.4 257.86a11.75 11.75 0 0 1 -11.75 11.75 11.75 11.75 0 0 1 -11.75 -11.75 11.75 11.75 0 0 1 11.75 -11.75 11.75 11.75 0 0 1 11.75 11.75z"/>
  <path d="m1221.6 270.41h-10a15.06 15.06 0 0 0 -15 15v12.38l0.84 0.26a68.49 68.49 0 0 0 20.46 3.3c11.06 0 17.47-3.15 17.86-3.35l0.78-0.4h0.08v-12.2a15.06 15.06 0 0 0 -15.02 -14.99z" class="cls-2"/>
  <path d="m1649.7 262h0.37a16.82 16.82 0 1 0 -0.37 0z" class="cls-2"/>
  <path d="m1693.6 294.17c-2.79-1.14-5.56-2.34-8.24-3.73a39.41 39.41 0 0 1 -8.59 -5.63l-0.47-0.43 0.08 0.06a63.29 63.29 0 0 1 -4.42 -4.65 37 37 0 0 1 -3.86 -5.75c-3.17-5.65-6.94-10.23-12.95-11.3a16.66 16.66 0 0 0 -14 4 44.4 44.4 0 0 0 -3.35 3.41 78.81 78.81 0 0 0 -13.15 20 71.2 71.2 0 0 0 -4.25 11.72 73.91 73.91 0 0 0 -2.1 12.17c-0.14 1.62-0.21 3.26-0.2 4.89a7.06 7.06 0 0 0 0 1 9.39 9.39 0 0 0 -4.79 8.18v1.53h-3.91a1.9 1.9 0 0 0 -1.9 1.9l-1.55 30.75a1.9 1.9 0 0 0 1.9 1.9h29.84a1.9 1.9 0 0 0 1.9 -1.9l-1.6-30.84a1.9 1.9 0 0 0 -1.9 -1.9h-3.91v-1.55a9.37 9.37 0 0 0 -3.72 -7.48v-0.9a57.66 57.66 0 0 1 7.16 -23.18c0.34-0.62 0.7-1.24 1.07-1.85q0.54 9.36 0.87 18.73 0.11 3 0.21 6.06a23.44 23.44 0 0 0 0.76 6.1 20.08 20.08 0 0 1 0.5 2.34c0.16 0.91 0.33 1.83 0.46 2.75 0.32 1.93 0.55 3.87 0.78 5.81 0.48 4.12 0.76 8.25 1 12.39 0.2 4.29 0.27 8.61 0.15 12.9-0.12 4.11-0.26 8.23-0.61 12.32-0.17 2-0.28 4-0.53 5.92-0.22 1.74-0.4 3.48-0.6 5.22 0 0.25-0.06 0.5-0.09 0.75a6.1 6.1 0 0 0 12 1.94c0.65-3.07 1.33-6.12 1.89-9.21 0.74-4.07 1.45-8.15 2-12.26s1-8.4 1.3-12.62 0.51-8.4 0.57-12.61v-1.25a143.07 143.07 0 0 1 1.28 25.3c-0.15 3.76-0.49 7.5-0.93 11.24-0.31 2.65-0.78 5.27-1.24 7.9a6.09 6.09 0 0 0 11.9 2.57c0.78-3 1.52-5.95 2.15-9 0.83-4 1.47-8.11 2-12.2a152.26 152.26 0 0 0 0.92 -25.18q-0.27-6.24-1-12.46-0.37-3-0.85-6-0.12-0.73-0.24-1.46a11.31 11.31 0 0 1 -0.1 -1.6q-0.05-1.57-0.1-3.14c-0.23-6.71-0.5-13.42-0.86-20.12a55.13 55.13 0 0 0 10.13 4.74 94.59 94.59 0 0 0 9.87 3 5.48 5.48 0 0 0 3.4 -0.09 5 5 0 0 0 0.08 -9.21zm-65.28 35.38h-11.1v-1.55a5.56 5.56 0 0 1 1.19 -3.44 5 5 0 0 0 9.48 1.13 5.55 5.55 0 0 1 0.5 2.31z" class="cls-2"/>
 </g>
</svg>
